<?xml version="1.0" encoding="UTF-8" standalone="no"?>
<!DOCTYPE svg PUBLIC "-//W3C//DTD SVG 1.1//EN" "http://www.w3.org/Graphics/SVG/1.1/DTD/svg11.dtd">
<!-- 由 Microsoft Visio, SVG Export 生成 Hunan_University.svg 页-1 -->
<svg xmlns="http://www.w3.org/2000/svg" xmlns:xlink="http://www.w3.org/1999/xlink" xmlns:ev="http://www.w3.org/2001/xml-events"
		xmlns:v="http://schemas.microsoft.com/visio/2003/SVGExtensions/" width="2.62243in" height="0.758601in"
		viewBox="0 0 188.815 54.6193" xml:space="preserve" color-interpolation-filters="sRGB" class="st2">
	<v:documentProperties v:langID="2052" v:metric="true" v:viewMarkup="false"/>

	<style type="text/css">
	<![CDATA[
		.st1 {fill:#cf111b;stroke:none;stroke-linecap:butt;stroke-width:0.146484}
		.st2 {fill:none;fill-rule:evenodd;font-size:12px;overflow:visible;stroke-linecap:square;stroke-miterlimit:3}
	]]>
	</style>

	<g v:mID="0" v:index="1" v:groupContext="foregroundPage">
		<title>页-1</title>
		<v:pageProperties v:drawingScale="0.0393701" v:pageScale="0.0393701" v:drawingUnits="24" v:shadowOffsetX="9"
				v:shadowOffsetY="-9"/>
		<g id="group1-1" transform="translate(71.4667,-2.38292)" v:mID="1" v:groupContext="group">
			<title>工作表.1</title>
			<g id="shape2-2" v:mID="2" v:groupContext="shape" transform="translate(4.35059,-10.4004)">
				<title>工作表.2</title>
				<path d="M1.23 24.03 C1.05 24.97 0.48 25.63 0.29 26.58 C0.57 26.39 0.85 26.2 1.14 26.11 C1.51 25.84 1.7 25.35 2.08
							 24.99 C2.55 24.41 2.74 23.67 3.03 23.01 C3.41 22.16 3.31 21.13 3.03 20.18 C2.93 19.71 2.84 19.04 2.46
							 18.76 C2.37 18.57 2.27 18.38 2.08 18.29 L2.08 17.91 C1.51 17.44 1.05 16.87 0.38 16.5 L0 16.5 C0.09 18.1
							 0.51 19.55 0.95 21.13 C1.23 22.14 1.32 23.1 1.23 24.03 ZM14.43 43.84 C14.43 43.74 14.62 43.65 14.71
							 43.65 C14.9 43.46 14.43 43.46 14.52 43.27 C14.79 41.85 14.9 40.44 15.18 39.02 C15.45 37.32 15.28 35.72
							 16.03 34.11 C16.13 34.11 16.22 34.11 16.22 34.2 C16.22 34.58 16.22 34.96 16.13 35.25 C15.75 36.85 15.1
							 38.55 16.03 40.06 C16.41 40.62 17.07 40.91 17.72 41.01 C17.92 41.01 18.19 40.63 18.02 40.35 C17.81 40.26
							 17.72 39.97 17.64 39.88 C17.36 39.31 16.68 38.84 16.89 38.18 C17.08 37.52 17.45 36.87 17.83 36.21 C17.93
							 36.1 18.12 35.93 18.3 35.83 C18.49 35.63 18.4 35.25 18.49 35.06 C18.68 34.7 18.74 34.24 18.49 33.75
							 C18.4 33.55 18.4 33.36 18.4 33.17 C18.4 32.98 18.12 33.17 18.12 32.98 C18.21 32.71 17.83 32.6 17.74
							 32.32 C17.55 31.86 17.08 31.67 16.6 31.28 C16.23 31.01 15.66 30.9 15.28 30.63 C14.9 30.43 14.43 30.43
							 14.05 30.63 C14.71 31.39 15.75 31.94 16.03 32.98 C16.03 33.09 15.94 33.09 15.85 33.09 C15.75 33.09 15.75
							 32.98 15.75 32.9 C15.56 32.9 15.28 32.81 15.09 32.9 C14.71 33.19 14.03 33.09 13.86 33.47 C13.48 33.94
							 13.67 34.79 13.39 35.36 C12.82 36.59 12.17 37.91 11.24 38.95 C10.85 38.01 11.79 36.78 10.75 36.12 C10.47
							 35.93 10 35.93 9.62 36.12 C8.77 36.5 8.29 37.44 7.54 38.1 C6.99 38.67 6.52 39.33 6.14 40.09 C5.95 40.37
							 5.48 40.84 5.1 41.04 C4.91 41.13 4.63 41.22 4.53 41.51 C4.44 42.08 4.53 42.64 4.8 43.11 C5.19 43.68
							 5.74 43.85 6.12 43.49 C6.31 43.38 6.4 43.11 6.59 42.83 C6.68 42.64 6.59 42.27 6.96 42.17 C6.87 41.7
							 7.25 41.41 7.25 40.94 C7.25 40.85 7.44 40.76 7.44 40.76 C7.91 39.81 8.29 38.87 8.67 37.92 C8.76 37.73
							 9.05 37.54 9.23 37.45 C9.71 39.34 8.57 41.13 7.72 42.83 C7.53 43.3 7.63 43.76 7.81 44.25 C8 44.53 8.28
							 44.63 8.47 44.91 C8.57 45.1 8.85 44.91 9.04 45.19 C9.21 45.38 9.61 45.27 9.7 45.19 C9.98 44.8 9.98 44.25
							 10.25 43.87 C10.34 43.68 10.25 43.49 10.25 43.3 C10.34 43.21 10.34 43.11 10.53 43.11 C10.53 42.92 10.53
							 42.64 10.81 42.53 L10.81 42.26 C10.81 42.17 11 42.17 11.1 42.17 C11.21 42.08 11 41.79 11.1 41.7 C12.23
							 40.57 12.52 39.06 13.36 37.73 C13.17 41.13 12.71 44.34 12.06 47.73 C11.87 48.96 11.67 50.09 11.1 51.22
							 C10.81 51.79 9.87 51.5 9.4 50.93 C9.2 50.84 8.94 51.03 9.02 51.31 C9.11 51.5 9.4 51.69 9.3 51.97 C9.68
							 51.97 9.58 52.35 9.68 52.54 C9.96 52.92 10.15 53.39 10.43 53.77 C10.62 54.14 10.99 54.62 11.47 54.24
							 C13.34 52.82 13.83 50.37 14.3 48.1 C14.62 46.67 14.53 45.26 14.43 43.84 Z" class="st1"/>
			</g>
			<g id="shape3-4" v:mID="3" v:groupContext="shape" transform="translate(18.1348,-10.5322)">
				<title>工作表.3</title>
				<path d="M1.79 28.33 C1.22 28.79 0.47 28.98 0 29.54 C2.83 29.83 5.27 28.12 7.16 26.25 C7.08 28.98 6.31 31.72 6.23
							 34.45 C6.04 38.7 6.42 42.84 5.95 47.09 C5.95 47.28 5.57 47.18 5.29 47.18 C4.53 46.99 3.87 46.61 3.22
							 46.24 C2.56 45.86 2.09 45.3 1.35 45.11 L1.35 45.39 L1.52 45.39 C1.71 45.48 1.52 45.67 1.61 45.86 L1.8
							 45.86 C1.99 46.05 1.99 46.33 2.08 46.33 C2.83 46.8 3.3 47.37 4.06 47.84 C4.72 48.22 5.29 48.77 5.67
							 49.35 C6.24 50.39 7.18 50.94 8.22 51.13 C8.51 51.13 8.51 50.75 8.69 50.66 C8.88 50.39 8.79 50.02 8.79
							 49.62 C8.69 49.05 8.51 48.39 8.51 47.84 C8.51 47.75 8.6 47.75 8.69 47.75 L8.69 42.18 C8.6 42.18 8.51
							 42.18 8.51 42.08 C8.51 39.53 8.41 37.09 8.51 34.54 C8.69 31.71 9.7 29.09 10.49 26.33 C10.68 25.67 10.77
							 25.01 10.58 24.36 C10.21 23.32 8.8 23.13 7.94 23.59 C6.34 24.44 5.02 25.4 3.6 26.61 C3.02 27.09 2.34
							 27.75 1.79 28.33 ZM98.45 20.68 C98.07 20.49 97.6 20.3 97.22 20.39 C96.75 20.58 96.28 20.39 95.9 20.77
							 C95.61 20.96 95.23 20.87 94.86 20.87 C94.67 20.87 94.86 21.16 94.67 21.16 C94.39 21.16 94.1 21.26 93.82
							 21.35 C92.4 21.91 91 22.67 89.58 23.43 C89.47 23.34 89.38 23.34 89.3 23.34 C88.73 22.48 87.7 22.39 86.75
							 22.39 C86.66 22.3 86.47 22.11 86.56 21.92 C87.3 20.88 88.17 20.14 89.02 19.18 C89.12 19.18 89.3 19.1
							 89.4 19.1 C90.25 17.78 91.76 17.02 91.38 15.33 C91.38 15.23 91.19 15.23 91.19 15.14 C91.19 14.48 90.72
							 14.01 90.34 13.53 C90.15 13.16 89.77 13.06 89.3 13.16 C89.66 14.01 89.58 14.95 89.58 15.9 C89.58 15.99
							 89.38 15.99 89.3 15.99 C89.3 16.28 89.3 16.46 89.02 16.56 L89.12 16.65 C89.12 16.84 88.84 16.65 88.84
							 16.84 C88.84 17.12 88.65 17.41 88.46 17.69 C88.18 18.16 87.8 18.64 87.52 19.2 C87.42 19.39 87.14 19.39
							 87.04 19.58 C86.66 20.15 86.29 20.72 85.81 21.19 C85.81 21.29 85.72 21.47 85.72 21.57 C85.34 22.14 84.87
							 22.8 84.21 22.89 C83.36 23.08 82.71 23.46 81.86 23.36 C81.75 23.36 81.75 23.55 81.75 23.64 C82.22 23.83
							 82.69 24.11 83.17 24.4 C82.98 24.68 82.6 24.87 82.31 25.06 C82.41 25.25 82.69 25.44 82.88 25.34 C82.97
							 25.34 83.16 25.23 83.35 25.23 C83.54 25.13 83.63 24.94 83.72 24.85 C84.01 24.75 84.29 24.58 84.57 24.58
							 C85.42 24.47 86.26 24 87.11 24.3 C87.3 24.3 87.22 24.87 87.03 25.06 C86.56 25.62 85.9 25.91 85.33 26.46
							 C84.86 26.85 84.29 26.93 83.63 26.85 C84.01 27.89 82.97 28.35 82.29 28.93 C82.12 28.16 81.93 27.42 81.64
							 26.76 C81.55 26.57 81.25 26.38 81.25 26.29 C81.06 25.73 80.68 25.35 80.49 24.97 C79.94 23.74 78.98 22.91
							 78.05 21.95 C77.94 21.87 77.67 21.76 77.48 21.87 C77.67 22.44 78.05 22.91 78.41 23.48 L78.41 23.95 C79.07
							 25.07 79.82 26.2 79.92 27.52 C80.01 27.52 80.11 27.52 80.11 27.62 L80.11 28.09 C80.39 28.66 80.49 29.13
							 80.49 29.79 C80.49 29.89 80.39 30.17 80.68 30.26 C80.68 30.36 80.6 30.36 80.49 30.36 L80.49 30.64 C80.3
							 30.93 79.94 31.21 79.75 30.93 C78.9 29.98 78.43 28.3 77.11 28 C77.21 29.04 77.3 30.07 77.68 31.11 C77.78
							 31.68 77.87 32.24 78.15 32.72 C78.53 33.19 78.91 33.66 79.28 34.04 L79.66 34.04 C79.94 33.19 80.21 32.44
							 80.79 31.68 C81.17 31.21 81.62 30.73 82.1 30.45 C82.87 29.97 83.26 29.15 84.08 28.94 C84.46 28.85 84.46
							 28.28 84.93 28.38 C85.03 28.38 85.03 28.57 85.03 28.66 C84.18 29.98 83.33 31.02 82.49 32.25 C83.06 32.44
							 83.44 32.06 83.91 31.69 L84.27 31.69 C84.93 30.95 85.31 29.91 86.35 29.42 C86.44 29.42 86.44 29.53 86.44
							 29.61 C86.82 29.61 87.2 29.8 87.48 30.08 C87.57 30.19 87.57 29.8 87.76 29.91 C87.76 29.61 87.57 29.44
							 87.48 29.15 C87.38 28.76 86.91 28.3 87.19 28.02 C87.66 27.45 88.04 26.89 88.32 26.32 C88.51 26.04 88.7
							 25.76 88.89 25.38 C88.99 25.19 89.36 25.38 89.46 25.28 C89.65 24.9 90.03 24.9 90.22 24.81 C90.98 24.43
							 91.73 24.05 92.39 23.58 C92.87 23.39 93.24 23.3 93.62 23.01 C94.09 22.63 94.57 22.44 95.04 22.26 C95.23
							 22.26 95.52 22.07 95.7 22.16 C95.79 22.16 95.89 22.35 95.89 22.35 C95.79 22.63 95.89 22.92 95.51 23.01
							 L95.51 23.3 C95.51 23.4 95.41 23.4 95.32 23.4 C95.21 23.49 95.32 23.59 95.41 23.59 C95.13 23.97 94.85
							 24.34 94.66 24.63 C93.24 26.9 92.11 29.16 90.12 30.96 C90.03 31.14 89.56 31.05 89.27 31.24 C89.17 30.67
							 89.82 30.2 90.21 29.82 C90.48 29.54 90.76 29.07 90.86 28.78 C90.97 28.4 91.25 28.12 91.25 27.74 C91.25
							 27.65 91.33 27.55 91.52 27.55 L91.52 27.27 C91.52 27.08 91.25 27.27 91.25 27.08 C91.25 26.79 91.25 26.6
							 90.97 26.42 L90.97 26.14 C90.67 26.04 90.59 25.76 90.4 25.67 C90.12 25.57 89.63 25.57 89.63 25.78 C89.44
							 26.33 89.44 26.9 89.36 27.48 C89.08 28.43 88.7 29.17 88.32 30.11 C88.32 30.21 88.23 30.49 87.93 30.49
							 C87.93 30.67 87.93 30.96 87.66 30.86 C87.85 31.43 87 31.43 86.81 31.9 C86.81 32 86.81 32.09 86.89 32.09
							 C87.66 31.99 88.32 31.52 88.97 31.33 C89.36 31.33 89.08 31.99 89.25 32.37 C89.06 32.37 89.25 32.65 89.06
							 32.65 C88.68 32.73 88.3 32.84 87.92 33.12 C87.83 33.22 87.55 33.03 87.45 33.12 C87.26 33.5 86.79 33.5
							 86.6 33.58 C86.03 33.86 85.47 34.24 84.81 34.42 C84.62 34.42 84.35 34.61 84.16 34.9 L83.77 34.9 C83.58
							 35.09 83.41 35.27 83.22 35.37 C82.84 35.56 82.46 35.65 82.18 35.94 L81.8 35.94 C81.69 36.32 81.33 36.13
							 81.14 36.41 C81.04 36.5 80.76 36.5 80.57 36.5 C80 36.88 79.44 37.07 78.87 37.45 C78.76 37.55 78.87 37.64
							 78.96 37.64 L79.34 37.64 C79.42 37.64 79.42 37.74 79.42 37.83 C80.27 37.83 81.02 37.55 81.88 37.36 C84.16
							 36.81 86.13 35.96 88.3 35 C88.4 34.92 88.68 34.81 88.87 34.81 L88.87 34.62 C89.15 34.43 89.44 34.43
							 89.72 34.16 C89.81 34.26 90.1 34.35 90 34.54 C88.49 36.15 86.98 37.36 85.66 39.25 C85.66 39.44 85.66
							 39.72 85.39 39.62 C85.39 39.91 85.2 40.1 85.2 40.19 C85 40.85 84.9 41.89 84.05 41.61 L84.14 41.7 C82.06
							 42.46 80.08 43.3 78.11 44.25 C76.98 44.8 75.85 45.38 74.81 46.31 L74.43 46.31 C74.52 46.59 74.05 46.59
							 74.14 46.69 C74.14 47.08 73.95 47.54 74.22 47.63 C75.37 48.48 76.68 47.73 77.81 46.97 C78.19 46.69 78.56
							 46.42 78.94 46.31 C79.69 46.12 80.17 45.46 81.01 45.46 C81.2 45.46 81.01 45.19 81.2 45.19 C81.58 45.19
							 81.86 44.8 82.34 44.91 C82.53 44.91 82.34 44.63 82.53 44.63 C82.72 44.63 82.91 44.72 83.1 44.63 C83.76
							 44.26 84.42 43.97 85.08 43.59 C85.46 43.4 85.46 44.06 85.55 44.25 C85.93 46.8 86.21 49.24 86.02 51.69
							 C85.08 52.82 83.48 52.73 82.06 52.73 C81.97 52.73 81.97 52.64 81.97 52.54 C80.93 52.73 79.98 52.07 78.85
							 52.07 C78.85 52.26 79.03 52.45 79.23 52.54 C80.55 53.2 81.97 53.77 83.38 54.24 C83.66 54.33 84.04 54.15
							 84.23 54.33 C84.42 54.52 84.7 54.43 84.89 54.43 C85.46 54.43 86.02 54.62 86.48 54.43 C86.87 54.24 87.06
							 53.87 87.14 53.49 C87.23 52.36 87.04 51.13 87.04 50 C87.04 49.62 87.14 49.24 87.04 48.86 C87.04 48.76
							 86.85 48.76 86.85 48.67 C86.85 48.29 86.95 47.82 86.85 47.54 C86.76 47.25 86.85 46.8 86.76 46.42 C86.66
							 46.42 86.56 46.42 86.56 46.33 C86.56 45.95 86.65 45.57 86.56 45.29 C86.28 44.54 85.99 43.88 86.09 43.12
							 C86.18 42.74 86.84 42.64 87.22 42.36 L87.6 42.36 C87.88 41.89 88.34 42.17 88.64 41.79 C88.83 41.7 89.11
							 41.79 89.3 41.79 C89.4 41.79 89.4 41.6 89.49 41.6 C89.77 41.6 90.42 41.49 90.34 41.88 C89.96 43.11 88.45
							 43.57 87.6 44.61 L87.79 44.61 C87.88 44.61 87.88 44.7 87.88 44.8 C88.83 44.7 89.49 44.04 90.42 43.87
							 C90.42 43.68 90.51 43.68 90.62 43.59 C91.36 43.4 91.74 42.64 92.4 42.17 C92.49 42.07 92.68 41.98 92.87
							 42.07 C92.78 41.79 93.15 41.88 93.25 41.68 C93.34 41.03 92.59 40.84 92.21 40.45 C91.83 40.18 91.36 40.35
							 91 40.35 C89.11 40.16 87.3 40.92 85.43 40.92 C85.43 40.54 85.71 40.16 85.99 39.97 C86.84 39.59 87.6
							 39.03 88.34 38.45 L88.73 38.45 C88.92 38.45 88.73 38.17 88.92 38.17 L89.19 38.17 C89.75 37.6 90.51 37.42
							 91 36.66 C91.08 36.47 91.55 36.56 91.74 36.38 C91.74 36.28 91.74 36.19 91.66 36.1 C91.85 35.91 92.04
							 35.81 92.21 35.72 C92.02 35.34 92.49 35.34 92.59 35.06 C92.59 34.96 92.7 34.68 92.97 34.77 C93.08 34.3
							 93.35 34.02 93.74 33.73 L93.74 33.45 C94.12 33.07 94.5 32.51 94.2 32.03 C93.91 31.56 93.27 31.27 92.59
							 31.18 C92.4 31.18 91.93 30.9 92.31 30.61 C92.89 30.23 93.27 29.67 93.63 29.1 C93.74 29.01 94.01 28.91
							 94.01 28.63 C94.01 28.55 94.2 28.55 94.31 28.55 C94.86 27.4 95.71 26.66 96.28 25.51 C96.47 25.34 96.67
							 25.15 96.84 25.04 C96.75 24.94 97.03 24.77 96.84 24.66 C97.22 24.28 97.41 23.81 97.69 23.43 C97.97 23.14
							 98.26 22.86 98.64 22.58 C98.83 22.39 98.83 22.11 98.92 21.82 C99.21 21.34 98.75 20.87 98.45 20.68 ZM65.92
							 45.77 C66.11 45.67 66.39 45.58 66.49 45.39 C66.58 45.11 66.58 44.73 66.4 44.45 C66.04 44.17 65.55 44.54
							 65.08 44.45 C63.3 44.07 61.79 43.33 60.28 42.18 C60.18 42.18 59.9 42.08 59.81 42.08 C57.92 40.67 56.32
							 39.15 54.35 37.93 C54.16 37.74 53.77 37.38 54.05 37.09 C54.35 36.7 54.9 36.51 55.47 36.24 C56.13 35.77
							 56.69 35.39 57.26 34.92 C58.3 34.07 59.43 33.41 60.28 32.28 C60.37 32.18 60.66 32.09 60.66 32 C60.85
							 31.62 60.94 31.05 60.66 30.77 C60.28 30.3 59.9 29.83 59.43 29.45 C58.96 28.98 59.05 28.03 58.3 27.86
							 C58.2 27.86 58.2 28.13 58.2 28.24 C58.48 28.9 58.95 29.47 58.95 30.13 C59.05 30.6 58.95 31.06 58.56
							 31.45 C58.1 31.91 57.52 32.1 56.95 32.49 C56.48 32.76 55.93 33.04 55.46 33.23 C55.37 33.23 55.08 33.51
							 54.99 33.23 C54.99 32.76 55.18 32.19 55.37 31.72 C55.65 31.05 55.46 30.21 56.03 29.54 C55.94 29.54 55.84
							 29.54 55.84 29.45 C56.4 27.37 56.69 25.31 56.78 23.23 C56.78 22.47 56.5 21.62 56.12 20.87 C55.83 20.49
							 55.36 20.21 54.89 20.4 C54.61 20.5 54.51 20.87 54.51 21.16 C53.95 23.9 53.85 26.44 53.55 29.09 C53.36
							 30.98 53 32.87 52.43 34.74 C52.05 35.68 50.83 36.06 49.98 36.53 C49.69 36.72 49.32 36.91 49.03 37 C48.65
							 37.19 48.09 37.55 47.61 37.66 C47.42 37.66 47.61 37.93 47.42 37.93 L47.14 37.93 C47.04 38.13 47.14 38.32
							 47.23 38.4 C47.61 38.51 47.71 38.87 48.08 38.97 C48.46 39.06 48.84 39.17 49.12 39.06 C49.76 38.78 50.42
							 38.2 51.18 38.2 C51.37 38.2 51.28 38.49 51.28 38.68 C50.63 40.38 49.67 41.98 49.2 43.76 C49.2 43.96
							 48.93 43.76 48.93 43.96 L48.93 44.25 C48.54 44.53 48.35 44.91 48.16 45.29 C47.5 46.14 46.55 46.61 45.91
							 47.37 C46.2 47.46 46.48 47.37 46.76 47.27 C47.42 47.08 47.99 46.61 48.54 46.12 C49.67 45.19 50.63 43.96
							 51.67 42.72 L51.67 42.36 C51.67 42.17 51.86 42.27 51.94 42.27 L51.94 42.08 C52.03 41.98 52.22 41.98
							 52.22 41.98 C52.31 41.7 52.51 41.41 52.6 41.04 C52.6 40.95 52.79 40.67 52.9 40.48 C53.47 39.74 53.36
							 38.78 53.83 37.93 C55.17 39.44 56.67 40.67 57.99 42.27 C59.03 43.59 59.78 44.91 60.91 46.14 C61.1 46.43
							 61.46 46.71 61.95 46.71 C62.7 46.61 63.46 46.61 64.03 46.33 C64.32 46.14 64.69 46.24 64.97 45.95 C65.24
							 45.77 65.64 45.96 65.92 45.77 Z" class="st1"/>
			</g>
			<g id="shape4-6" v:mID="4" v:groupContext="shape">
				<title>工作表.4</title>
				<path d="M1.52 42.21 C1.61 42.21 1.71 42.3 1.9 42.49 C2.09 42.77 2.56 42.49 2.65 42.21 C2.93 41.17 3.31 40.32 3.59
							 39.3 C3.78 38.54 4.44 37.88 4.72 37.03 C4.82 36.75 4.82 36.37 4.82 36.09 C5.01 35.71 5.1 35.24 5.19
							 34.86 C5.48 34.01 5.95 33.16 5.84 32.22 C5.84 32.03 6.14 32.22 6.14 32.03 C6.14 31.84 6.04 31.56 6.14
							 31.37 C6.42 31.08 6.33 30.7 6.52 30.42 C6.71 30.23 6.52 29.86 6.8 29.57 C6.99 29.48 6.8 28.91 6.99 28.72
							 C7.27 28.34 7.18 27.96 7.37 27.68 C7.65 26.74 7.65 25.62 7.84 24.58 C8.69 24.3 9.62 24.38 10.47 24.02
							 C10.75 23.92 11.04 23.83 11.32 23.73 C12.28 22.88 13.11 21.94 14.06 21 C14.15 20.9 14.06 20.71 14.24
							 20.62 L14.43 20.62 L14.43 20.43 C14.52 20.34 14.62 20.34 14.71 20.34 C14.62 20.05 14.9 19.96 14.99 19.96
							 C15.28 19.86 15.28 19.48 15.64 19.58 C15.73 19.58 15.64 19.3 15.83 19.3 C16.11 19.3 16.3 19.01 16.58
							 18.92 C17.61 18.45 18.56 17.79 19.6 17.22 C20.45 16.75 20.45 15.43 20.17 14.5 C20.07 14.31 19.6 14.31
							 19.6 14.03 C19.32 14.03 19.03 13.84 18.84 13.75 C17.8 12.81 16.86 11.86 16.01 10.73 C15.73 10.35 15.73
							 9.97 15.63 9.5 C15.44 8.93 14.97 8.84 14.5 8.93 C14.12 9.02 14.03 9.4 14.03 9.59 C13.17 12.52 12.33
							 15.24 12.14 18.28 C10.36 19.68 8.38 20.63 6.77 22.33 C6.39 22.61 5.92 22.89 5.73 23.27 C5.45 23.65 5.16
							 24.12 5.36 24.59 C5.54 25.16 6.02 25.63 5.83 26.29 C5.17 28.65 4.61 31.01 3.38 33.09 C3 30.64 2.15 28.37
							 1.7 26.01 C0.19 29.6 0.38 33.55 0.38 37.42 C0.38 38.37 0 39.21 0 40.16 L0 40.44 C0.1 41.27 0.76 41.74
							 1.52 42.21 ZM16.14 14.39 C16.25 13.65 16.23 12.89 16.14 12.12 C16.9 12.97 17.55 14.2 16.99 15.33 C16.8
							 15.8 15.95 15.89 15.67 16.46 C15.67 15.71 16.05 15.05 16.14 14.39 ZM54.16 35.71 C54.26 35.05 54.54 34.48
							 54.54 33.82 C54.24 30.89 54.05 27.96 54.05 25.04 C54.05 24.96 54.14 24.96 54.24 24.96 C54.24 24.77 53.96
							 24.87 54.05 24.66 C54.61 24.11 53.96 23.34 54.43 22.58 C54.73 22.3 54.43 21.84 54.54 21.35 C54.54 21.25
							 54.62 21.16 54.81 21.16 C54.9 20.68 54.81 20.31 55 19.84 C55.2 19.36 55.2 18.61 55 18.14 C54.9 17.95
							 54.81 17.68 54.54 17.57 C54.16 17.57 53.69 17.38 53.31 17.49 C51.69 18.06 50.08 18.72 48.49 19.46 C48.49
							 19.46 48.4 19.57 48.3 19.65 C47.64 19.84 46.89 20.31 46.22 20.69 C46.11 20.69 45.94 20.69 45.94 20.61
							 C46.04 20.42 46.22 20.03 46.51 20.03 L46.51 19.86 C46.51 19.76 46.61 19.8 46.7 19.76 C46.89 19.65 46.99
							 19.46 47.17 19.29 C47.45 19.1 47.83 18.99 48.11 18.82 C48.59 18.44 48.96 18.06 49.42 17.69 C49.7 17.59
							 50 17.31 50.27 17.12 C51.23 16.56 52.08 16.09 52.73 15.33 C53.01 14.86 52.84 14.2 52.35 14.01 C51.88
							 13.82 51.61 13.35 51.04 13.35 C51.12 14.01 51.23 14.78 50.67 15.14 C50.38 15.23 50.29 15.42 50.1 15.52
							 C49.82 15.52 49.73 15.71 49.54 15.8 C49.35 15.8 48.97 15.89 48.97 15.71 C49.07 15.16 49.16 14.59 49.25
							 13.93 C49.44 12.99 49.54 12.04 49.35 11.1 C49.35 10.73 49.16 9.78 48.69 9.78 C48.31 9.87 48.12 10.73
							 47.84 11.29 C47.75 11.48 47.65 11.67 47.55 11.86 C46.79 13.09 46.42 14.32 46.13 15.54 C45.94 16.2 46.13
							 17.05 45.66 17.43 C43.49 19.02 41.13 20.17 38.77 21.21 C38.1 21.48 37.54 21.76 36.88 22.06 C36.78 22.06
							 36.97 22.35 37.08 22.44 C37.92 22.71 38.96 22.99 39.8 22.61 C39.99 22.51 40.27 22.44 40.56 22.44 C40.65
							 22.44 40.65 22.52 40.65 22.61 C41.97 22.14 43.39 21.67 44.62 20.91 C44.71 20.91 44.9 20.91 44.9 21.02
							 C44.79 21.21 44.71 21.48 44.62 21.67 C44.14 22.35 43.48 22.61 42.92 23.1 C42.36 23.67 41.79 24.14 41.04
							 24.6 C40.47 25.07 40.09 25.45 39.62 26.03 C39.16 26.68 38.67 27.34 38.39 28 C38.01 28.76 37.82 29.51
							 37.35 30.08 C36.4 31.3 35.95 32.63 36.12 34.04 C36.12 34.51 36.59 34.89 36.78 35.36 C36.88 35.36 37.16
							 35.44 37.25 35.36 C37.81 33.85 37.53 32.24 38 30.73 C38.09 30.17 38.28 29.69 38.47 29.13 C38.75 28.57
							 39.32 28.11 39.89 28 C40.36 27.81 40.83 27.62 41.21 27.34 L41.5 27.34 C41.5 27.26 41.5 27.15 41.59 27.15
							 C41.78 27.15 41.97 27.05 42.06 27.15 C42.33 27.53 42.71 27.62 42.99 28 C43.18 28.11 43.46 28.11 43.65
							 28.11 C43.65 28 43.65 27.9 43.75 27.9 C44.03 27.9 44.12 27.62 44.22 27.71 C44.69 27.9 44.22 28.66 44.5
							 29.03 C44.69 29.22 45.07 29.13 44.97 29.51 C44.68 30.17 44.31 30.83 43.93 31.49 C43.93 31.59 43.65 31.78
							 43.55 31.87 C43.45 32.15 43.27 32.43 43.27 32.81 C43.37 32.81 43.45 32.81 43.45 32.9 C43.45 33.28 43.45
							 33.75 43.74 33.85 C44.49 34.04 44.87 33.09 45.62 33 C45.72 33 45.91 33.19 45.82 33.38 C45.53 34.14 45.82
							 34.98 46.1 35.63 C46.2 35.83 46.39 36.29 46.57 35.93 C47.23 34.4 46.66 32.81 47.5 31.3 C47.61 31.2 47.8
							 31.2 47.8 31.2 C47.89 30.64 48.27 30.16 48.08 29.6 C47.89 29.22 47.89 28.75 47.52 28.47 C47.43 28.47
							 47.24 28.37 47.14 28.37 C46.96 28.28 46.86 27.9 46.57 27.99 C46.57 27.7 46.1 27.7 46.19 27.42 C47.12
							 26.48 48.08 25.72 48.74 24.59 C48.91 24.21 48.82 23.83 48.46 23.74 C47.61 23.46 46.29 23.17 45.82 24.31
							 C45.44 25.25 44.31 26.01 43.17 26.01 C43.08 26.01 42.98 25.91 43.08 25.82 C44.03 24.97 44.78 24.21 45.82
							 23.46 C45.91 23.36 45.91 23.08 46.01 22.99 C46.29 22.99 46.39 22.71 46.67 22.61 C46.86 22.61 46.96 22.33
							 47.14 22.14 C48.84 21.21 50.54 20.53 52.24 19.7 C52.43 19.61 52.81 19.42 52.98 19.51 C53.07 19.61 53.28
							 19.51 53.28 19.7 C53.36 20.25 53.75 20.74 53.45 21.21 C53.36 21.48 53.45 21.76 53.36 21.95 C52.98 23.46
							 53.17 25.07 53.17 26.57 C53.07 28.55 53.07 30.52 52.98 32.51 C52.98 33.45 52.98 34.39 52.62 35.34 C52.05
							 36.66 50.35 35.81 49.41 35.25 C49.58 36.38 50.92 36.95 51.77 37.51 C52.24 37.79 52.82 38.08 53.38 37.7
							 C54.05 37.22 54.05 36.37 54.16 35.71 ZM45.95 30.23 C46.05 30.14 46.14 30.14 46.23 30.14 C46.32 30.14
							 46.32 30.23 46.32 30.33 C46.23 30.42 46.23 30.42 46.13 30.51 C46.04 30.51 45.94 30.51 45.94 30.42 C45.95
							 30.33 45.88 30.3 45.95 30.23 ZM4.23 47.53 L4.47 47.53 C4.67 47.53 4.82 47.56 4.95 47.63 C5.07 47.71
							 5.16 47.78 5.19 47.87 C5.23 47.95 5.24 48.19 5.24 48.54 L5.24 50.55 L2.72 50.55 L2.72 48.54 C2.72 48.19
							 2.74 47.97 2.78 47.88 C2.84 47.76 2.92 47.68 3 47.63 C3.13 47.56 3.3 47.51 3.5 47.51 L3.74 47.51 L3.74
							 47.34 L0.01 47.34 L0.01 47.53 L0.25 47.53 C0.45 47.53 0.6 47.56 0.72 47.63 C0.83 47.71 0.91 47.78 0.95
							 47.87 C1 47.95 1.01 48.19 1.01 48.54 L1.01 53.21 C1.01 53.56 1 53.78 0.95 53.87 C0.91 53.99 0.83 54.08
							 0.75 54.12 C0.62 54.19 0.45 54.24 0.25 54.24 L0.01 54.24 L0.01 54.43 L3.74 54.43 L3.74 54.24 L3.5 54.24
							 C3.3 54.24 3.15 54.21 3.03 54.14 C2.92 54.06 2.84 53.99 2.8 53.9 C2.75 53.81 2.74 53.58 2.74 53.23 L2.74
							 51.03 L5.26 51.03 L5.26 53.23 C5.26 53.58 5.23 53.8 5.2 53.89 C5.14 54 5.08 54.09 4.98 54.14 C4.86 54.21
							 4.69 54.25 4.48 54.25 L4.25 54.25 L4.25 54.44 L7.95 54.44 L7.95 54.25 L7.72 54.25 C7.53 54.25 7.37 54.22
							 7.24 54.15 C7.12 54.08 7.05 54 7 53.92 C6.96 53.83 6.94 53.59 6.94 53.24 L6.94 48.57 C6.94 48.22 6.96
							 48 7 47.91 C7.06 47.79 7.13 47.71 7.22 47.66 C7.34 47.59 7.51 47.54 7.72 47.54 L7.95 47.54 L7.95 47.34
							 L4.25 47.34 L4.25 47.53 L4.23 47.53 ZM13.78 47.53 C14.06 47.53 14.3 47.57 14.44 47.65 C14.55 47.71 14.63
							 47.79 14.69 47.92 C14.75 48.06 14.79 48.29 14.79 48.61 L14.79 51.51 C14.79 52.26 14.72 52.8 14.59 53.1
							 C14.46 53.4 14.25 53.64 13.99 53.81 C13.71 53.99 13.39 54.08 13.01 54.08 C12.67 54.08 12.39 54 12.17
							 53.87 C11.95 53.74 11.79 53.56 11.7 53.36 C11.6 53.15 11.56 52.73 11.56 52.1 L11.56 48.63 C11.56 48.22
							 11.59 47.97 11.63 47.87 C11.67 47.76 11.75 47.69 11.85 47.63 C11.95 47.57 12.14 47.54 12.42 47.54 L12.61
							 47.54 L12.61 47.34 L8.95 47.34 L8.95 47.53 C9.24 47.53 9.46 47.56 9.57 47.62 C9.68 47.68 9.76 47.75
							 9.8 47.85 C9.84 47.95 9.87 48.2 9.87 48.61 L9.87 52.09 C9.87 52.67 9.96 53.14 10.15 53.49 C10.34 53.84
							 10.66 54.12 11.12 54.36 C11.46 54.52 11.92 54.6 12.54 54.6 C13.27 54.6 13.86 54.46 14.28 54.14 C14.71
							 53.83 14.97 53.49 15.09 53.11 C15.19 52.74 15.25 52.13 15.25 51.31 L15.25 48.61 C15.25 48.32 15.28 48.12
							 15.32 48.01 C15.38 47.85 15.48 47.73 15.62 47.65 C15.75 47.57 15.91 47.53 16.11 47.53 L16.26 47.53 L16.26
							 47.34 L13.78 47.34 L13.78 47.53 ZM22.12 47.53 C22.51 47.53 22.79 47.62 22.97 47.82 C23.09 47.97 23.14
							 48.26 23.14 48.69 L23.14 51.73 L19.63 47.34 L17.11 47.34 L17.11 47.53 C17.33 47.54 17.49 47.57 17.61
							 47.63 C17.72 47.69 17.86 47.82 18 48.01 L18.15 48.2 L18.15 53.21 C18.15 53.59 18.08 53.86 17.92 54.02
							 C17.77 54.18 17.49 54.25 17.09 54.25 L17.09 54.44 L19.61 54.44 L19.61 54.25 L19.45 54.25 C19.22 54.25
							 19 54.18 18.81 54.03 C18.62 53.89 18.53 53.61 18.53 53.21 L18.53 48.7 L23.33 54.62 L23.51 54.62 L23.51
							 48.7 C23.51 48.36 23.54 48.13 23.6 47.98 C23.66 47.85 23.73 47.75 23.85 47.69 C23.95 47.63 24.16 47.57
							 24.45 47.54 L24.45 47.34 L22.1 47.34 L22.1 47.53 L22.12 47.53 ZM31.77 53.02 L29.21 47.19 L29.11 47.19
							 L26.57 52.86 C26.32 53.4 26.13 53.75 25.97 53.93 C25.81 54.11 25.59 54.21 25.34 54.25 L25.34 54.44 L27.7
							 54.44 L27.7 54.25 C27.33 54.22 27.1 54.18 27 54.12 C26.84 54.03 26.75 53.89 26.75 53.68 C26.75 53.54
							 26.79 53.34 26.89 53.11 L27.19 52.42 L29.69 52.42 L30.07 53.3 C30.18 53.54 30.22 53.67 30.23 53.7 C30.25
							 53.75 30.26 53.83 30.26 53.89 C30.26 53.99 30.22 54.08 30.15 54.14 C30.03 54.21 29.84 54.25 29.56 54.25
							 L29.41 54.25 L29.41 54.44 L32.86 54.44 L32.86 54.25 C32.64 54.24 32.48 54.17 32.36 54.06 C32.21 53.92
							 32.02 53.58 31.77 53.02 ZM27.39 52.04 L28.48 49.59 L29.53 52.04 L27.39 52.04 ZM38.69 47.53 C39.08 47.53
							 39.36 47.62 39.54 47.82 C39.65 47.97 39.73 48.26 39.73 48.69 L39.73 51.73 L36.21 47.34 L33.69 47.34
							 L33.69 47.53 C33.91 47.54 34.07 47.57 34.19 47.63 C34.31 47.69 34.44 47.82 34.58 48.01 L34.73 48.2 L34.73
							 53.21 C34.73 53.59 34.66 53.86 34.5 54.02 C34.34 54.18 34.07 54.25 33.68 54.25 L33.68 54.44 L36.2 54.44
							 L36.2 54.25 L36.05 54.25 C35.82 54.25 35.6 54.18 35.41 54.03 C35.21 53.89 35.13 53.61 35.13 53.21 L35.13
							 48.7 L39.93 54.62 L40.11 54.62 L40.11 48.7 C40.11 48.36 40.14 48.13 40.2 47.98 C40.25 47.85 40.33 47.75
							 40.43 47.69 C40.53 47.63 40.74 47.57 41.04 47.54 L41.04 47.34 L38.7 47.34 L38.7 47.53 L38.69 47.53 ZM50.16
							 47.53 C50.45 47.53 50.67 47.57 50.83 47.65 C50.93 47.71 51.02 47.79 51.08 47.92 C51.15 48.06 51.18 48.29
							 51.18 48.61 L51.18 51.51 C51.18 52.26 51.11 52.8 50.98 53.1 C50.84 53.4 50.64 53.64 50.36 53.81 C50.08
							 53.99 49.76 54.08 49.38 54.08 C49.04 54.08 48.76 54 48.54 53.87 C48.33 53.74 48.16 53.56 48.08 53.36
							 C47.99 53.15 47.93 52.73 47.93 52.1 L47.93 48.63 C47.93 48.22 47.94 47.97 47.99 47.87 C48.03 47.76 48.11
							 47.69 48.21 47.63 C48.31 47.57 48.5 47.54 48.78 47.54 L48.96 47.54 L48.96 47.34 L45.29 47.34 L45.29
							 47.53 C45.59 47.53 45.81 47.56 45.91 47.62 C46.03 47.68 46.1 47.75 46.14 47.85 C46.19 47.95 46.22 48.2
							 46.22 48.61 L46.22 52.09 C46.22 52.67 46.3 53.14 46.49 53.49 C46.68 53.84 47.01 54.12 47.46 54.36 C47.8
							 54.52 48.27 54.6 48.88 54.6 C49.61 54.6 50.2 54.46 50.62 54.14 C51.05 53.83 51.31 53.49 51.43 53.11
							 C51.55 52.74 51.59 52.13 51.59 51.31 L51.59 48.61 C51.59 48.32 51.62 48.12 51.67 48.01 C51.72 47.85
							 51.83 47.73 51.96 47.65 C52.09 47.57 52.25 47.53 52.46 47.53 L52.6 47.53 L52.6 47.34 L50.14 47.34 L50.14
							 47.53 L50.16 47.53 ZM58.49 47.53 C58.89 47.53 59.17 47.62 59.34 47.82 C59.46 47.97 59.52 48.26 59.52
							 48.69 L59.52 51.73 L56 47.34 L53.48 47.34 L53.48 47.53 C53.7 47.54 53.86 47.57 53.98 47.63 C54.1 47.69
							 54.23 47.82 54.37 48.01 L54.52 48.2 L54.52 53.21 C54.52 53.59 54.45 53.86 54.29 54.02 C54.14 54.18 53.86
							 54.25 53.47 54.25 L53.47 54.44 L55.99 54.44 L55.99 54.25 L55.83 54.25 C55.59 54.25 55.37 54.18 55.18
							 54.03 C54.99 53.89 54.9 53.61 54.9 53.21 L54.9 48.7 L59.71 54.62 L59.88 54.62 L59.88 48.7 C59.88 48.36
							 59.91 48.13 59.97 47.98 C60.03 47.85 60.1 47.75 60.21 47.69 C60.31 47.63 60.51 47.57 60.81 47.54 L60.81
							 47.34 L58.46 47.34 L58.46 47.53 L58.49 47.53 ZM61.83 47.53 L62.07 47.53 C62.26 47.53 62.42 47.56 62.53
							 47.63 C62.65 47.71 62.72 47.78 62.77 47.87 C62.81 47.95 62.83 48.19 62.83 48.54 L62.83 53.21 C62.83
							 53.56 62.81 53.78 62.77 53.87 C62.72 53.99 62.65 54.08 62.56 54.12 C62.43 54.19 62.27 54.24 62.07 54.24
							 L61.83 54.24 L61.83 54.43 L65.55 54.43 L65.55 54.24 L65.32 54.24 C65.11 54.24 64.97 54.21 64.85 54.14
							 C64.73 54.06 64.66 53.99 64.61 53.9 C64.57 53.81 64.56 53.58 64.56 53.23 L64.56 48.55 C64.56 48.2 64.57
							 47.98 64.61 47.9 C64.66 47.78 64.73 47.69 64.83 47.65 C64.95 47.57 65.13 47.53 65.33 47.53 L65.57 47.53
							 L65.57 47.34 L61.83 47.34 L61.83 47.53 ZM71.65 47.53 C71.89 47.53 72.1 47.56 72.25 47.62 C72.35 47.66
							 72.44 47.72 72.5 47.79 C72.55 47.88 72.58 47.97 72.58 48.07 C72.58 48.16 72.57 48.28 72.52 48.41 C72.48
							 48.54 72.38 48.79 72.22 49.17 L70.81 52.32 L69.29 48.77 C69.13 48.41 69.04 48.17 69.01 48.09 C68.98
							 48 68.96 47.92 68.96 47.87 C68.96 47.76 69.01 47.69 69.08 47.63 C69.2 47.56 69.4 47.51 69.71 47.51 L69.83
							 47.51 L69.83 47.34 L66.42 47.34 L66.42 47.53 C66.69 47.56 66.88 47.63 66.99 47.76 C67.09 47.88 67.28
							 48.28 67.57 48.96 L70 54.62 L70.18 54.62 L72.63 49.18 C72.92 48.54 73.14 48.13 73.29 47.95 C73.49 47.72
							 73.73 47.59 73.97 47.54 L73.97 47.34 L71.65 47.34 L71.65 47.53 ZM80.24 53.59 C79.85 53.9 79.31 54.06
							 78.65 54.06 L78.22 54.06 C78.02 54.06 77.87 54.03 77.78 53.97 C77.7 53.92 77.64 53.84 77.59 53.75 C77.56
							 53.67 77.55 53.43 77.55 53.04 L77.55 51.03 C77.89 51.03 78.15 51.07 78.33 51.16 C78.5 51.25 78.66 51.43
							 78.79 51.69 C78.93 51.95 79.01 52.28 79.06 52.69 L79.26 52.69 L79.26 48.96 L79.06 48.96 C79 49.52 78.87
							 49.93 78.66 50.22 C78.46 50.5 78.13 50.65 77.68 50.65 L77.53 50.65 L77.53 47.75 L78.27 47.75 C78.81
							 47.75 79.17 47.78 79.37 47.85 C79.7 47.95 79.97 48.12 80.14 48.35 C80.32 48.57 80.46 48.94 80.57 49.45
							 L80.77 49.45 L80.77 47.34 L74.82 47.34 L74.82 47.53 L75.06 47.53 C75.29 47.53 75.47 47.57 75.6 47.68
							 C75.69 47.73 75.76 47.84 75.79 47.95 C75.81 48.03 75.82 48.22 75.82 48.54 L75.82 53.21 C75.82 53.56
							 75.81 53.78 75.76 53.87 C75.72 53.99 75.64 54.08 75.56 54.12 C75.42 54.19 75.26 54.24 75.06 54.24 L74.82
							 54.24 L74.82 54.43 L80.96 54.43 L81.28 52.17 L81.09 52.17 C80.93 52.82 80.64 53.29 80.24 53.59 ZM89.18
							 53.49 L87.47 51.09 C87.89 50.99 88.23 50.83 88.48 50.61 C88.86 50.27 89.05 49.83 89.05 49.3 C89.05 48.88
							 88.92 48.5 88.67 48.17 C88.42 47.85 88.1 47.63 87.7 47.51 C87.3 47.4 86.67 47.34 85.81 47.34 L82.51
							 47.34 L82.51 47.53 C82.84 47.53 83.06 47.56 83.17 47.62 C83.29 47.68 83.38 47.75 83.42 47.85 C83.47
							 47.95 83.5 48.19 83.5 48.58 L83.5 53.2 C83.5 53.58 83.47 53.83 83.42 53.92 C83.38 54.02 83.29 54.09
							 83.17 54.15 C83.06 54.21 82.84 54.24 82.51 54.24 L82.51 54.43 L86.15 54.43 L86.15 54.24 C85.83 54.24
							 85.61 54.21 85.49 54.15 C85.37 54.09 85.28 54 85.24 53.92 C85.2 53.81 85.17 53.58 85.17 53.18 L85.17
							 51.19 L85.63 51.19 L87.92 54.43 L90.16 54.43 L90.16 54.24 C89.97 54.22 89.81 54.17 89.66 54.06 C89.58
							 54 89.41 53.8 89.18 53.49 ZM87.13 50.22 C87 50.46 86.81 50.62 86.56 50.71 C86.32 50.8 85.96 50.84 85.47
							 50.84 L85.18 50.84 L85.18 47.72 L85.74 47.72 C86.29 47.72 86.7 47.85 86.97 48.12 C87.22 48.36 87.35
							 48.77 87.35 49.32 C87.33 49.68 87.26 49.99 87.13 50.22 ZM94.03 50.03 C93.43 49.74 93.05 49.54 92.89
							 49.42 C92.67 49.26 92.5 49.1 92.4 48.94 C92.33 48.82 92.3 48.67 92.3 48.51 C92.3 48.26 92.4 48.04 92.61
							 47.85 C92.81 47.66 93.09 47.56 93.46 47.56 C93.91 47.56 94.35 47.73 94.75 48.1 C95.14 48.47 95.39 48.94
							 95.49 49.54 L95.71 49.54 L95.65 47.16 L95.49 47.16 C95.45 47.37 95.41 47.51 95.35 47.56 C95.3 47.62
							 95.23 47.65 95.13 47.65 C95.02 47.65 94.86 47.59 94.63 47.47 C94.39 47.35 94.19 47.28 94.03 47.24 C93.81
							 47.18 93.59 47.15 93.35 47.15 C92.72 47.15 92.2 47.35 91.79 47.75 C91.38 48.14 91.17 48.63 91.17 49.2
							 C91.17 49.54 91.25 49.83 91.39 50.11 C91.54 50.39 91.76 50.63 92.05 50.85 C92.33 51.09 92.8 51.35 93.44
							 51.67 C93.9 51.89 94.22 52.09 94.41 52.23 C94.58 52.38 94.73 52.52 94.82 52.69 C94.91 52.83 94.95 53.01
							 94.95 53.17 C94.95 53.45 94.83 53.7 94.6 53.92 C94.37 54.12 94.06 54.24 93.66 54.24 C93.15 54.24 92.68
							 54.05 92.24 53.64 C91.8 53.24 91.51 52.67 91.35 51.91 L91.16 51.91 L91.16 54.59 L91.35 54.59 C91.41
							 54.44 91.49 54.34 91.6 54.27 C91.7 54.19 91.79 54.17 91.89 54.17 C92.01 54.17 92.14 54.19 92.3 54.27
							 C92.59 54.4 92.86 54.47 93.05 54.53 C93.24 54.58 93.46 54.6 93.68 54.6 C94.38 54.6 94.98 54.4 95.43
							 53.96 C95.9 53.54 96.14 53.02 96.14 52.42 C96.14 51.95 95.99 51.54 95.71 51.18 C95.42 50.83 94.86 50.44
							 94.03 50.03 ZM97.32 47.53 L97.56 47.53 C97.76 47.53 97.91 47.56 98.03 47.63 C98.14 47.71 98.22 47.78
							 98.26 47.87 C98.31 47.95 98.32 48.19 98.32 48.54 L98.32 53.21 C98.32 53.56 98.31 53.78 98.26 53.87 C98.22
							 53.99 98.14 54.08 98.06 54.12 C97.92 54.19 97.76 54.24 97.56 54.24 L97.32 54.24 L97.32 54.43 L101.04
							 54.43 L101.04 54.24 L100.81 54.24 C100.61 54.24 100.46 54.21 100.34 54.14 C100.22 54.06 100.15 53.99
							 100.11 53.9 C100.06 53.81 100.05 53.58 100.05 53.23 L100.05 48.55 C100.05 48.2 100.06 47.98 100.11 47.9
							 C100.17 47.78 100.22 47.69 100.33 47.65 C100.46 47.57 100.62 47.53 100.83 47.53 L101.06 47.53 L101.06
							 47.34 L97.34 47.34 L97.34 47.53 L97.32 47.53 ZM102.22 49.26 L102.42 49.26 C102.5 48.73 102.69 48.34
							 102.99 48.04 C103.21 47.84 103.55 47.73 104.03 47.73 L104.55 47.73 L104.55 53.21 C104.55 53.56 104.53
							 53.78 104.49 53.87 C104.43 53.99 104.36 54.08 104.27 54.12 C104.14 54.19 103.97 54.24 103.77 54.24 L103.54
							 54.24 L103.54 54.43 L107.26 54.43 L107.26 54.24 L107.02 54.24 C106.82 54.24 106.66 54.21 106.54 54.14
							 C106.42 54.06 106.35 53.99 106.3 53.9 C106.26 53.81 106.25 53.58 106.25 53.23 L106.25 47.75 L106.77
							 47.75 C107.11 47.75 107.34 47.78 107.46 47.85 C107.7 47.97 107.89 48.12 108.02 48.32 C108.15 48.51 108.28
							 48.83 108.38 49.27 L108.57 49.27 L108.57 47.34 L102.19 47.34 L102.19 49.26 L102.22 49.26 ZM114.98 47.53
							 C115.3 47.54 115.52 47.6 115.63 47.69 C115.72 47.75 115.77 47.84 115.77 47.92 C115.77 48.1 115.61 48.45
							 115.28 48.96 L114.01 51.1 L112.72 48.75 C112.44 48.23 112.29 47.92 112.29 47.79 C112.29 47.72 112.34
							 47.66 112.41 47.6 C112.5 47.54 112.63 47.51 112.85 47.51 L113 47.51 L113 47.34 L109.58 47.34 L109.58
							 47.53 C109.82 47.53 110 47.59 110.13 47.69 C110.26 47.79 110.49 48.14 110.83 48.75 L112.5 51.79 L112.5
							 53.21 C112.5 53.56 112.49 53.78 112.44 53.87 C112.38 53.99 112.31 54.08 112.22 54.12 C112.1 54.19 111.93
							 54.24 111.72 54.24 L111.34 54.24 L111.34 54.43 L115.33 54.43 L115.33 54.24 L114.93 54.24 C114.74 54.24
							 114.59 54.21 114.48 54.14 C114.36 54.06 114.29 53.99 114.24 53.9 C114.21 53.81 114.18 53.58 114.18 53.21
							 L114.18 51.5 L115.72 48.92 C116.1 48.26 116.38 47.87 116.54 47.72 C116.67 47.62 116.85 47.54 117.08
							 47.51 L117.08 47.34 L114.92 47.34 L114.92 47.53 L114.98 47.53 Z" class="st1"/>
			</g>
		</g>
		<g id="group5-8" transform="translate(0.146484,-0.146484)" v:mID="5" v:groupContext="group">
			<title>工作表.5</title>
			<g id="shape6-9" v:mID="6" v:groupContext="shape" transform="translate(10.8766,-9.67911)">
				<title>工作表.6</title>
				<path d="M0 37.14 C0 46.78 7.84 54.62 17.47 54.62 C27.11 54.62 34.95 46.78 34.95 37.14 C34.95 27.5 27.1 19.67 17.47
							 19.67 C7.84 19.66 0 27.5 0 37.14 ZM2.43 44.7 C1.28 42.42 0.64 39.85 0.64 37.14 C0.64 35.73 0.81 34.36
							 1.14 33.06 L3.64 33.06 L3.64 30.76 L8.27 30.76 L8.27 33.05 L10.05 33.05 L10.05 34.94 L11.05 34.94 L11.05
							 35.68 L8.86 35.68 L8.86 34.47 L7.18 34.47 L7.18 32.72 L4.66 32.72 L4.66 34.47 L2.42 34.47 L2.42 44.7
							 L2.43 44.7 ZM9.42 38.82 L9.42 41.49 L7.4 41.49 L7.4 38.82 L9.42 38.82 ZM31.79 46 L23.14 46 L23.14 46.64
							 L31.37 46.64 C28.34 51.07 23.23 53.98 17.47 53.98 C11.71 53.98 6.61 51.07 3.58 46.64 L11.78 46.64 L11.78
							 46 L3.16 46 C3.03 45.78 2.89 45.56 2.76 45.33 L11.78 45.33 L13.01 44.77 L21.92 44.77 L23.15 45.33 L32.19
							 45.33 C32.06 45.56 31.92 45.78 31.79 46 ZM21.79 36.35 L20.91 31.27 L21.97 31.27 L23.14 35.72 L23.14
							 36.35 L21.79 36.35 L21.79 36.35 ZM23.14 36.98 L23.14 44.75 L22.28 44.36 L22.28 36.98 L23.14 36.98 ZM21.21
							 36.35 L19.71 36.35 L19.28 31.27 L20.34 31.27 L21.21 36.35 ZM21.78 37.36 L21.78 44.13 L19.07 42.89 L19.07
							 37.36 L21.78 37.36 ZM17.69 36.35 L17.69 31.27 L18.76 31.27 L19.18 36.35 L17.69 36.35 ZM18.56 36.98 L18.56
							 43.23 L20.8 44.25 L14.11 44.25 L16.36 43.23 L16.36 36.98 L18.56 36.98 ZM17.22 36.35 L15.73 36.35 L16.16
							 31.27 L17.22 31.27 L17.22 36.35 ZM15.86 37.36 L15.86 42.89 L13.14 44.13 L13.14 37.36 L15.86 37.36 ZM15.2
							 36.35 L13.7 36.35 L14.57 31.27 L15.63 31.27 L15.2 36.35 ZM13.12 36.35 L11.77 36.35 L11.77 35.67 L12.93
							 31.27 L13.99 31.27 L13.12 36.35 ZM12.63 36.98 L12.63 44.36 L11.78 44.75 L11.78 36.98 L12.63 36.98 ZM25.5
							 41.49 L25.5 38.82 L27.52 38.82 L27.52 41.49 L25.5 41.49 ZM34.31 37.14 C34.31 39.88 33.65 42.47 32.49
							 44.76 L32.49 34.47 L30.26 34.47 L30.26 32.72 L27.73 32.72 L27.73 34.47 L26.05 34.47 L26.05 35.68 L23.86
							 35.68 L23.86 34.94 L24.87 34.94 L24.87 33.06 L26.65 33.06 L26.65 30.76 L31.28 30.76 L31.28 33.05 L33.81
							 33.05 C34.14 34.36 34.31 35.73 34.31 37.14 ZM33.52 32.01 L31.64 32.01 L31.64 30.7 L31.66 30.53 C31.69
							 30.34 31.81 30.15 31.93 30.02 C32.15 29.75 32.19 29.55 32.2 29.39 L32.2 29.37 C32.2 29.26 32.11 29.17
							 32 29.17 C31.89 29.17 31.79 29.26 31.79 29.37 C31.79 29.44 31.84 29.51 31.9 29.54 C31.8 29.72 31.61
							 29.72 31.43 29.72 L26.51 29.72 C26.33 29.72 26.14 29.72 26.03 29.54 C26.1 29.51 26.14 29.44 26.14 29.37
							 C26.14 29.25 26.05 29.17 25.93 29.17 C25.82 29.17 25.73 29.26 25.73 29.37 L25.73 29.39 C25.74 29.55
							 25.78 29.75 26 30.02 C26.11 30.15 26.25 30.34 26.27 30.53 L26.28 30.7 L26.28 32.02 L24.72 32.02 C24.54
							 32.02 24.35 32.02 24.24 31.84 C24.3 31.8 24.35 31.74 24.35 31.66 C24.35 31.55 24.25 31.46 24.14 31.46
							 C24.03 31.46 23.94 31.55 23.94 31.66 L23.94 31.69 C23.95 31.85 23.99 32.04 24.21 32.31 C24.32 32.45
							 24.45 32.64 24.47 32.83 L24.49 32.99 L24.49 33.89 L23.47 33.89 L22.79 31.26 L22.79 31.24 C22.79 31.24
							 23.14 31.07 23.28 30.93 L23.35 30.61 C23.71 30.34 24.15 29.89 24.15 29.89 L23.96 29.71 C23.96 29.71
							 23.58 30 23.23 30.16 C22.89 30.32 22.51 30.48 22.18 30.49 L12.73 30.49 C12.39 30.48 12.01 30.32 11.68
							 30.16 C11.32 30 10.94 29.71 10.94 29.71 L10.76 29.89 C10.76 29.89 11.2 30.34 11.55 30.61 L11.62 30.93
							 C11.76 31.07 12.12 31.24 12.12 31.24 L12.12 31.25 L11.42 33.89 L10.41 33.89 L10.41 32.99 L10.42 32.82
							 C10.44 32.63 10.58 32.43 10.69 32.31 C10.91 32.04 10.95 31.84 10.96 31.68 L10.96 31.65 C10.96 31.54
							 10.87 31.45 10.76 31.45 C10.64 31.45 10.56 31.54 10.56 31.65 C10.56 31.73 10.6 31.8 10.66 31.83 C10.56
							 32.01 10.37 32.01 10.18 32.01 L8.62 32.01 L8.62 30.69 L8.64 30.53 C8.66 30.34 8.79 30.14 8.9 30.01 C9.12
							 29.74 9.16 29.54 9.18 29.39 L9.18 29.36 C9.18 29.25 9.08 29.16 8.97 29.16 C8.86 29.16 8.77 29.25 8.77
							 29.36 C8.77 29.43 8.81 29.5 8.87 29.54 C8.77 29.71 8.58 29.71 8.39 29.71 L3.48 29.71 C3.29 29.71 3.11
							 29.71 3 29.54 C3.07 29.5 3.11 29.44 3.11 29.36 C3.11 29.25 3.02 29.16 2.91 29.16 C2.79 29.16 2.71 29.25
							 2.71 29.36 L2.71 29.39 C2.72 29.54 2.76 29.74 2.98 30.01 C3.09 30.15 3.22 30.34 3.25 30.53 L3.26 30.7
							 L3.26 32.01 L1.42 32.01 C1.87 30.59 2.51 29.26 3.29 28.03 C4.07 27.96 5.66 27.73 7.68 27.11 C9.4 26.58
							 11.04 25.95 12.91 25.14 L14.75 26.4 L17.44 24.56 L20.12 26.4 L21.97 25.14 C23.84 25.95 25.49 26.58 27.2
							 27.11 C29.25 27.74 30.86 27.96 31.62 28.04 C32.42 29.27 33.06 30.6 33.52 32.01 ZM17.47 20.3 C23.23 20.3
							 28.33 23.21 31.36 27.64 C30.65 27.56 29.33 27.34 27.57 26.75 C24.61 25.76 21.92 24.26 21.92 24.26 L20.19
							 25.67 L17.45 23.23 L14.72 25.67 L12.99 24.26 C12.99 24.26 10.3 25.76 7.33 26.75 C5.6 27.33 4.29 27.55
							 3.58 27.64 C6.63 23.21 11.71 20.3 17.47 20.3 Z" class="st1"/>
			</g>
			<g id="shape7-11" v:mID="7" v:groupContext="shape" transform="translate(7.23453,-5.93784)">
				<title>工作表.7</title>
				<path d="M25.84 42.26 L16.34 42.26 L15.4 47.39 L26.81 47.39 L25.86 42.26 L25.84 42.26 ZM16.76 42.76 L25.44 42.76
							 L25.64 43.8 L16.57 43.8 L16.76 42.76 ZM26.2 46.88 L16 46.88 L16.19 45.85 L26.01 45.85 L26.2 46.88 ZM16.28
							 45.34 L16.47 44.31 L25.73 44.31 L25.92 45.34 L16.28 45.34 ZM40.66 42.11 L41.14 40.99 L41.04 40.94 C40.91
							 41.16 40.87 41.23 40.52 41.07 L39.74 40.74 L38.67 39.55 C38.56 39.42 38.58 39.33 38.6 39.26 L38.5 39.21
							 L38.18 39.91 L38.29 39.97 C38.38 39.82 38.43 39.7 38.6 39.77 C38.71 39.83 38.91 40.03 38.95 40.07 L39.58
							 40.77 L38.42 40.73 C38.33 40.72 38.21 40.73 38.15 40.7 C38.02 40.65 38.01 40.6 38.11 40.38 L38.01 40.32
							 L37.55 41.4 L37.65 41.45 C37.73 41.28 37.95 41.29 38.01 41.29 L39.67 41.32 L40.29 41.59 C40.65 41.74
							 40.63 41.82 40.56 42.07 L40.66 42.11 ZM38.93 45.15 L39.6 44.1 L39.5 44.04 C39.34 44.24 39.3 44.3 38.96
							 44.09 L36.9 42.77 C37.04 42.57 37.26 42.28 37.92 42.63 L37.97 42.54 L37.18 42.03 L36.05 43.79 L36.82
							 44.31 L36.89 44.22 C36.31 43.76 36.48 43.45 36.59 43.23 L38.65 44.56 C38.97 44.77 38.95 44.84 38.83
							 45.07 L38.93 45.15 ZM37.17 47.38 L37.97 46.44 L37.88 46.38 C37.74 46.51 37.64 46.61 37.41 46.41 L35.69
							 44.95 C35.45 44.75 35.56 44.61 35.66 44.48 L35.56 44.41 L34.78 45.34 L34.88 45.42 C34.99 45.3 35.1 45.19
							 35.33 45.38 L37.05 46.83 C37.27 47.02 37.19 47.14 37.09 47.29 L37.17 47.38 ZM35.78 48.9 C36.24 48.47
							 36.02 47.91 35.75 47.6 C35.4 47.24 35.02 47.21 34.88 47.24 L34.29 47.34 C33.93 47.39 33.81 47.36 33.64
							 47.18 C33.44 46.95 33.49 46.72 33.61 46.6 C33.93 46.33 34.44 46.57 34.71 46.76 L34.78 46.7 L34.09 45.96
							 L34.01 46.04 C34.05 46.11 34.09 46.17 34.03 46.23 C33.96 46.29 33.74 46.29 33.54 46.48 C33.04 46.93
							 33.4 47.46 33.59 47.68 C33.74 47.83 34.01 48.13 34.71 48 L34.98 47.95 C35.24 47.91 35.43 47.87 35.65
							 48.1 C35.68 48.15 35.98 48.49 35.68 48.78 C35.34 49.08 34.84 48.83 34.47 48.54 L34.4 48.6 L35.18 49.45
							 L35.26 49.38 C35.21 49.31 35.17 49.24 35.23 49.19 C35.31 49.11 35.53 49.13 35.78 48.9 ZM33.61 50.55
							 L34.2 50.16 L34.12 50.06 C34.1 50.08 34.05 50.11 33.95 50.06 L32.64 49.37 C32.75 49.2 32.98 48.88 32.65
							 48.41 C32.21 47.75 31.57 48.14 31.38 48.28 L30.44 48.9 L30.5 49.01 C30.69 48.9 30.78 48.86 31 49.18
							 L32.16 50.89 C32.37 51.2 32.31 51.25 32.14 51.4 L32.21 51.5 L33.18 50.85 L33.12 50.74 C32.9 50.84 32.84
							 50.87 32.63 50.57 L32.11 49.82 L32.19 49.77 L33.61 50.55 ZM32.03 49.69 L31.36 48.7 C31.3 48.58 31.28
							 48.53 31.45 48.43 C31.67 48.27 31.91 48.36 32.17 48.75 C32.5 49.24 32.4 49.43 32.03 49.69 ZM29.07 52.93
							 L29.13 53.03 L30.98 52.17 L30.7 51.23 L30.61 51.27 C30.7 52 30.43 52.25 30.12 52.4 C29.91 52.49 29.82
							 52.47 29.74 52.28 L29.27 51.26 C29.59 51.11 29.8 51.17 30.09 51.68 L30.16 51.64 L29.5 50.21 L29.43 50.25
							 C29.62 50.79 29.5 50.98 29.19 51.11 L28.75 50.13 C28.67 49.95 28.71 49.91 28.89 49.83 C29.31 49.63 29.6
							 49.63 29.94 50.2 L30.02 50.17 L29.63 49.31 L27.8 50.17 L27.85 50.26 C28 50.21 28.14 50.16 28.26 50.43
							 L29.21 52.48 C29.34 52.76 29.24 52.81 29.07 52.93 ZM26.01 50.86 L25.98 50.75 L24.84 51.06 L24.87 51.17
							 C25.02 51.16 25.08 51.16 25.24 51.4 L26.83 53.85 L26.93 53.83 L26.97 50.98 C26.98 50.71 26.99 50.62
							 27.17 50.53 L27.15 50.42 L26.43 50.62 L26.45 50.73 C26.65 50.69 26.76 50.68 26.81 50.86 C26.83 50.95
							 26.83 51.08 26.82 51.18 L26.81 52.77 L25.98 51.48 C25.91 51.37 25.79 51.21 25.77 51.12 C25.72 50.96
							 25.8 50.94 26.01 50.86 ZM23.33 54.31 L23.33 54.44 L24.54 54.27 L24.54 54.16 C24.34 54.16 24.2 54.17
							 24.16 53.87 L23.88 51.65 C23.83 51.33 24 51.3 24.16 51.27 L24.15 51.15 L22.93 51.32 L22.94 51.42 C23.1
							 51.42 23.27 51.41 23.3 51.71 L23.61 53.94 C23.64 54.23 23.5 54.27 23.33 54.31 ZM20.27 52.1 L21.8 54.62
							 L21.89 54.62 L21.91 51.88 C21.91 51.67 21.92 51.56 22.19 51.52 L22.19 51.4 L21.43 51.4 L21.43 51.51
							 C21.72 51.54 21.75 51.69 21.75 51.98 L21.75 53.38 L20.54 51.4 L19.8 51.4 L19.8 51.51 C19.86 51.51 19.9
							 51.53 20.11 51.84 L20.1 54.05 C20.1 54.36 20 54.39 19.8 54.41 L19.8 54.53 L20.58 54.53 L20.58 54.42
							 C20.32 54.39 20.26 54.29 20.26 53.96 L20.27 52.1 ZM16.67 53.04 C16.59 53.54 16.64 53.71 16.76 53.9 C16.94
							 54.2 17.26 54.28 17.41 54.31 C17.62 54.35 17.93 54.31 18.15 54.09 C18.32 53.92 18.44 53.51 18.49 53.24
							 L18.73 51.78 C18.79 51.48 18.88 51.44 19.07 51.44 L19.1 51.32 L18.34 51.19 L18.32 51.3 C18.61 51.38
							 18.61 51.54 18.59 51.82 L18.34 53.21 C18.29 53.51 18.16 54.2 17.56 54.09 C17.06 54.01 17.17 53.38 17.22
							 53.12 L17.49 51.6 C17.55 51.19 17.66 51.21 17.88 51.23 L17.91 51.12 L16.75 50.92 L16.73 51.03 C16.91
							 51.1 17 51.12 16.93 51.5 L16.67 53.04 ZM11.22 49.39 L11.22 49.39 L11.36 52.35 L11.45 52.39 L12.77 50
							 C12.88 49.81 12.95 49.72 13.2 49.81 L13.25 49.7 L12.58 49.33 L12.54 49.43 C12.77 49.6 12.73 49.75 12.6
							 50 L11.92 51.23 L11.91 51.22 L11.81 48.91 L11.17 48.55 L11.11 48.65 C11.15 48.67 11.19 48.71 11.2 49.09
							 L10.14 51.01 C9.99 51.28 9.89 51.27 9.69 51.19 L9.63 51.3 L10.32 51.68 L10.38 51.57 C10.18 51.42 10.15
							 51.31 10.32 51.01 L11.22 49.39 ZM9.66 47.36 L9.59 47.31 L7.4 48.82 C7.11 49.03 6.97 49.11 6.8 49.04
							 L6.72 49.12 L7.28 49.56 L7.36 49.47 C7.27 49.39 7.15 49.28 7.26 49.13 C7.31 49.08 7.47 48.96 7.75 48.76
							 L8.37 49.26 C8.32 49.4 8.18 49.74 8.11 49.84 C8.02 49.96 7.96 49.92 7.78 49.81 L7.71 49.9 L8.6 50.59
							 L8.67 50.51 C8.53 50.4 8.59 50.26 8.77 49.77 L9.66 47.36 ZM8.43 49.07 L7.9 48.65 L8.86 47.97 L8.43 49.07
							 ZM5.65 48.22 L7.68 46.38 C7.85 46.22 7.94 46.17 8.15 46.33 L8.23 46.25 L7.73 45.69 L7.64 45.77 C7.82
							 46 7.73 46.13 7.52 46.32 L6.48 47.26 L6.46 47.26 L7.12 45.03 L6.62 44.49 L6.53 44.57 C6.57 44.6 6.59
							 44.66 6.49 45.01 L4.86 46.5 C4.64 46.7 4.55 46.65 4.37 46.51 L4.29 46.59 L4.82 47.17 L4.91 47.09 C4.76
							 46.88 4.78 46.76 5.02 46.54 L6.4 45.29 L6.41 45.29 L5.59 48.14 L5.65 48.22 ZM3.51 45.11 C3.76 45.11
							 4.15 44.93 4.37 44.78 L5.62 43.98 C5.88 43.81 5.96 43.86 6.1 43.99 L6.19 43.93 L5.77 43.29 L5.68 43.35
							 C5.82 43.61 5.72 43.74 5.48 43.88 L4.28 44.65 C4.03 44.81 3.43 45.19 3.1 44.67 C2.82 44.25 3.37 43.91
							 3.58 43.76 L4.9 42.92 C5.24 42.71 5.3 42.79 5.43 42.98 L5.53 42.91 L4.89 41.93 L4.79 41.99 C4.87 42.16
							 4.91 42.25 4.58 42.46 L3.28 43.3 C2.86 43.57 2.77 43.74 2.71 43.96 C2.61 44.29 2.76 44.58 2.85 44.71
							 C2.96 44.88 3.21 45.09 3.51 45.11 ZM1.97 42.08 L4.04 41.21 C4.33 41.1 4.4 41.23 4.47 41.36 L4.58 41.31
							 L4.11 40.22 L4 40.27 C4.05 40.41 4.1 40.56 3.82 40.68 L2.93 41.06 L2.61 40.28 L3.49 39.9 C3.78 39.78
							 3.85 39.93 3.93 40.07 L4.02 40.02 L3.57 38.94 L3.46 38.97 C3.5 39.13 3.55 39.26 3.27 39.38 L1.21 40.27
							 C0.96 40.38 0.9 40.28 0.79 40.11 L0.69 40.16 L1.14 41.25 L1.24 41.2 C1.19 41.03 1.16 40.89 1.42 40.79
							 L2.42 40.37 L2.75 41.14 L1.76 41.56 C1.5 41.67 1.42 41.56 1.33 41.4 L1.23 41.45 L1.69 42.54 L1.79 42.49
							 C1.75 42.31 1.73 42.19 1.97 42.08 ZM6.11 22.66 C6.08 22.68 6.08 22.73 6.12 22.75 C6.16 22.75 6.22 22.73
							 6.26 22.78 C6.3 22.73 6.33 22.78 6.38 22.78 C6.46 22.78 6.55 22.8 6.63 22.8 C6.71 22.83 6.82 22.82 6.82
							 22.71 C6.82 22.27 6.5 21.95 6.22 21.63 C6.04 21.44 5.82 21.3 5.6 21.16 C5.58 21.15 5.6 21.11 5.6 21.1
							 C5.6 21.05 5.55 21.12 5.53 21.08 C5.34 20.89 5.14 20.73 4.97 20.53 C4.75 20.31 4.49 20.16 4.34 19.88
							 C4.35 19.86 4.36 19.85 4.37 19.86 C4.44 19.91 4.48 19.95 4.51 19.98 C4.7 20.22 4.89 20.49 5.22 20.52
							 C5.34 20.52 5.45 20.44 5.54 20.36 C5.56 20.34 5.53 20.26 5.47 20.25 C5.43 20.27 5.38 20.25 5.36 20.26
							 C5.24 20.24 5.09 20.29 5.02 20.19 C4.95 20.08 4.89 19.96 4.83 19.83 C4.83 19.81 4.83 19.76 4.83 19.72
							 C4.83 19.68 4.75 19.64 4.74 19.62 C4.7 19.54 4.65 19.5 4.55 19.47 C4.51 19.46 4.48 19.45 4.46 19.42
							 C4.42 19.4 4.42 19.46 4.39 19.45 C4.36 19.4 4.31 19.45 4.26 19.44 C4.17 19.41 4.09 19.47 3.98 19.5 C3.9
							 19.52 3.83 19.59 3.74 19.62 C3.67 19.64 3.62 19.71 3.61 19.79 C3.8 19.78 4 19.69 4.17 19.75 C4.18 19.76
							 4.17 19.78 4.16 19.78 C4.15 19.8 4.14 19.79 4.12 19.78 C4.1 19.81 4.06 19.84 4.05 19.88 C4.05 19.96
							 3.96 20.05 4 20.13 C4.02 20.23 4.17 20.29 4.23 20.4 C4.35 20.6 4.48 20.85 4.53 21.1 C4.35 21.05 4.27
							 20.78 4.06 20.86 C4 20.89 3.95 20.96 3.93 21.04 C3.9 21.21 3.99 21.37 4 21.56 C4.02 21.71 4.08 21.85
							 4.15 21.98 C4.17 22.05 4.18 22.17 4.17 22.24 C4.17 22.27 4.15 22.32 4.19 22.37 C4.27 22.44 4.35 22.49
							 4.46 22.49 C4.58 22.5 4.67 22.44 4.66 22.34 C4.67 22.31 4.63 22.26 4.61 22.2 C4.6 22.17 4.53 22.14 4.56
							 22.07 C4.48 22.03 4.48 21.95 4.41 21.9 C4.39 21.88 4.4 21.86 4.4 21.86 C4.31 21.68 4.21 21.53 4.11 21.37
							 C4.1 21.33 4.11 21.27 4.11 21.23 C4.43 21.36 4.58 21.73 4.73 22.04 C4.79 22.12 4.87 22.15 4.96 22.17
							 C5.02 22.17 5.07 22.15 5.12 22.15 C5.17 22.16 5.17 22.1 5.23 22.1 C5.27 22.08 5.3 22.02 5.29 22 C5.27
							 21.92 5.19 21.86 5.17 21.78 C5.14 21.74 5.1 21.73 5.07 21.72 C5.07 21.7 5.07 21.68 5.07 21.66 C5.05
							 21.64 5.01 21.61 5.03 21.56 C5.03 21.56 5 21.54 4.99 21.53 C4.97 21.51 4.99 21.49 5 21.47 C5 21.44 4.94
							 21.44 4.94 21.42 C4.89 21.13 4.69 20.93 4.59 20.66 C5.07 21.05 5.5 21.47 5.93 21.93 C6.09 22.08 6.24
							 22.24 6.35 22.44 C6.39 22.54 6.26 22.64 6.11 22.66 ZM1.29 20.61 C1.2 20.46 1.04 20.37 0.86 20.3 C0.79
							 20.27 0.69 20.2 0.6 20.23 C0.55 20.23 0.52 20.23 0.48 20.24 C0.47 20.23 0.45 20.21 0.43 20.21 C0.3 20.23
							 0.16 20.25 0.04 20.3 C0.03 20.32 0.01 20.35 0 20.36 C0.25 20.52 0.5 20.61 0.79 20.71 C0.96 20.78 1.12
							 20.87 1.25 20.98 C1.37 21.11 1.4 21.27 1.53 21.4 C1.53 21.34 1.53 21.28 1.54 21.22 C1.54 21.13 1.5 21.06
							 1.48 20.96 C1.45 20.83 1.37 20.71 1.29 20.61 Z" class="st1"/>
			</g>
			<g id="shape8-13" v:mID="8" v:groupContext="shape" transform="translate(8.72962,-35.7829)">
				<title>工作表.8</title>
				<path d="M1.8 49.14 C1.83 48.96 1.63 48.82 1.46 48.76 C1.41 48.75 1.37 48.82 1.33 48.79 C1.29 48.84 1.23 48.85 1.2
							 48.87 C0.96 48.93 0.71 48.96 0.45 48.96 C0.37 48.96 0.31 48.93 0.24 48.89 C0.13 48.86 0.06 48.92 0.03
							 49 C0 49.06 0.06 49.11 0.08 49.14 C0.42 49.58 0.74 50 1.15 50.35 C1.17 50.77 1.09 51.17 1.18 51.59 C1.18
							 51.67 1.17 51.77 1.21 51.84 C1.23 51.93 1.28 52.02 1.37 52.03 C1.47 52.06 1.59 52.06 1.67 52.15 C1.95
							 52.49 2.23 52.84 2.4 53.24 C2 53.04 1.58 52.92 1.17 52.73 C1.54 53.35 2.15 53.74 2.71 54.16 C2.86 54.26
							 2.95 54.41 3.08 54.51 L3.12 54.53 C3.27 54.62 3.4 54.57 3.55 54.51 C3.56 54.5 3.59 54.5 3.64 54.48 C3.7
							 54.48 3.71 54.39 3.67 54.34 C3.54 54.19 3.46 54.04 3.34 53.88 C3.25 53.77 3.22 53.61 3.12 53.47 C3.1
							 53.43 3.03 53.38 2.99 53.36 C2.95 53.29 2.9 53.23 2.86 53.17 C2.75 53.05 2.69 52.88 2.54 52.79 C2.51
							 52.77 2.57 52.76 2.54 52.73 C2.51 52.71 2.47 52.68 2.44 52.66 C2.44 52.59 2.37 52.54 2.35 52.49 C2.33
							 52.44 2.27 52.44 2.25 52.37 C2.26 52.34 2.16 52.3 2.14 52.25 C2.12 52.17 2.05 52.14 2.03 52.09 C1.92
							 51.93 1.76 51.81 1.62 51.69 C1.67 51.52 1.79 51.4 1.81 51.23 C1.83 51.18 1.85 51.13 1.87 51.08 C1.85
							 50.85 1.79 50.63 1.76 50.38 C1.76 50.35 1.71 50.35 1.71 50.31 C1.74 50.29 1.75 50.28 1.75 50.28 C1.75
							 50.28 1.73 50.27 1.71 50.27 C1.71 50.25 1.71 50.23 1.73 50.22 C1.68 50.2 1.7 50.15 1.71 50.13 C1.71
							 50.08 1.67 50.04 1.71 50 C1.73 49.98 1.68 49.96 1.71 49.94 C1.73 49.9 1.71 49.84 1.71 49.79 C1.77 49.56
							 1.78 49.35 1.8 49.14 ZM1.25 49.63 C1.15 49.55 1.09 49.43 1.01 49.34 C0.91 49.24 0.79 49.16 0.68 49.1
							 C0.87 49.08 1.13 49.11 1.23 49.31 C1.3 49.4 1.21 49.54 1.25 49.63 Z" class="st1"/>
			</g>
			<g id="shape9-15" v:mID="9" v:groupContext="shape" transform="translate(2.15406,-32.9557)">
				<title>工作表.9</title>
				<path d="M11.28 46.8 C11.27 46.81 11.26 46.82 11.25 46.82 C10.88 46.54 10.5 46.29 10.14 46.01 C9.74 45.68 9.46 45.24
							 9.13 44.83 C9.05 44.73 8.96 44.65 8.85 44.6 C8.66 44.56 8.47 44.73 8.46 44.91 C8.41 45.24 8.41 45.54
							 8.43 45.88 C8.44 46.02 8.47 46.17 8.5 46.32 C8.5 46.46 8.45 46.59 8.49 46.72 C8.83 46.34 8.84 45.79
							 8.77 45.3 C9.16 45.61 9.48 46.01 9.88 46.32 C10.49 46.81 11.14 47.2 11.71 47.72 C11.74 47.74 11.69 47.79
							 11.66 47.83 C11.55 47.92 11.42 47.98 11.3 48.04 C11.18 48.09 11.03 48.11 10.93 48.19 C10.95 48.2 10.95
							 48.22 10.98 48.23 C10.98 48.23 10.99 48.22 10.99 48.19 C11.03 48.18 11.03 48.23 11.07 48.23 C11.07 48.23
							 11.08 48.22 11.09 48.21 C11.15 48.2 11.18 48.23 11.2 48.22 C11.34 48.16 11.48 48.14 11.63 48.09 C11.76
							 48.03 11.9 48 12.03 48.02 C12.24 48.04 12.43 47.96 12.56 47.82 C12.61 47.79 12.53 47.75 12.55 47.71
							 C12.52 47.65 12.46 47.63 12.41 47.58 C12.31 47.54 12.19 47.49 12.11 47.43 C12.1 47.42 12.11 47.41 12.12
							 47.39 C11.83 47.2 11.56 47 11.28 46.8 ZM17.23 40.66 C17.13 40.75 17.05 40.82 16.94 40.91 C16.93 40.92
							 16.98 40.95 16.99 40.97 C17.15 40.97 17.35 40.97 17.49 40.85 C17.51 40.82 17.56 40.79 17.61 40.78 C17.63
							 40.77 17.64 40.79 17.64 40.8 C17.84 40.65 18.06 40.49 18.24 40.29 C18.25 40.29 18.29 40.28 18.29 40.29
							 C18.29 40.33 18.29 40.38 18.28 40.43 C18.23 40.56 18.14 40.65 18.05 40.77 C17.99 40.89 17.91 41.01 17.81
							 41.13 C17.73 41.25 17.69 41.33 17.64 41.46 C17.59 41.6 17.55 41.73 17.53 41.87 C17.52 42.02 17.52 42.16
							 17.47 42.29 C17.37 42.55 17.36 42.81 17.47 43.04 C17.49 43.13 17.59 43.17 17.66 43.24 C17.66 43.23 17.73
							 43.23 17.74 43.22 C17.76 42.92 17.62 42.66 17.62 42.37 C17.6 42.27 17.61 42.17 17.62 42.06 C17.64 41.94
							 17.7 41.84 17.79 41.79 C17.87 41.73 17.95 41.66 17.99 41.6 C18 41.59 18.02 41.59 18.03 41.59 C18.03
							 41.57 18.03 41.56 18.05 41.55 C18.08 41.53 18.1 41.51 18.12 41.52 C18.2 41.57 18.27 41.56 18.34 41.61
							 C18.38 41.62 18.42 41.6 18.46 41.59 C18.45 41.57 18.44 41.56 18.46 41.55 C18.52 41.54 18.52 41.48 18.54
							 41.5 C18.62 41.51 18.58 41.66 18.65 41.72 C18.7 41.72 18.76 41.69 18.76 41.76 C18.74 41.89 18.71 42.03
							 18.69 42.16 C18.69 42.18 18.65 42.23 18.64 42.25 C18.64 42.31 18.62 42.36 18.64 42.44 C18.66 42.42 18.68
							 42.42 18.69 42.44 C18.7 42.5 18.72 42.59 18.78 42.59 C18.92 42.57 18.94 42.4 19.07 42.33 C19.08 42.33
							 19.13 42.35 19.12 42.4 C19.1 42.54 19.22 42.67 19.29 42.76 C19.32 42.8 19.38 42.87 19.39 42.8 C19.42
							 42.5 19.23 42.25 19.29 41.94 C19.31 41.92 19.34 41.9 19.34 41.9 C19.33 41.8 19.37 41.7 19.3 41.61 C19.24
							 41.56 19.22 41.48 19.15 41.45 C19.13 41.46 19.09 41.45 19.07 41.46 C19.03 41.45 18.99 41.39 18.95 41.42
							 C18.93 41.38 18.86 41.39 18.86 41.34 C18.97 41.13 19.09 40.94 19.15 40.71 C19.16 40.64 19.12 40.58 19.05
							 40.58 C18.89 40.58 18.64 40.6 18.62 40.83 C18.61 41.01 18.45 41.21 18.25 41.26 C18.23 41.27 18.21 41.26
							 18.22 41.23 C18.34 41.04 18.43 40.87 18.57 40.67 C18.58 40.65 18.57 40.6 18.58 40.59 C18.64 40.57 18.64
							 40.52 18.67 40.48 C18.7 40.48 18.7 40.42 18.72 40.38 C18.97 40.12 19.23 39.92 19.48 39.68 C19.51 39.65
							 19.56 39.6 19.6 39.6 C19.63 39.62 19.65 39.59 19.66 39.62 C19.71 39.71 19.8 39.78 19.78 39.87 C19.78
							 39.93 19.8 39.97 19.8 40.01 C19.82 40.29 19.94 40.56 20.02 40.82 C20.11 41.17 20.22 41.52 20.32 41.86
							 C20.36 42.03 20.43 42.2 20.41 42.38 C20.38 42.64 20.05 42.59 19.85 42.54 C19.95 42.73 20.19 42.75 20.39
							 42.81 C20.48 42.84 20.6 42.84 20.68 42.75 C20.77 42.63 20.72 42.47 20.7 42.36 C20.68 42.25 20.7 42.13
							 20.66 42.02 C20.46 41.52 20.27 41.02 20.1 40.52 C20.1 40.5 20.12 40.5 20.13 40.49 C20.12 40.46 20.07
							 40.49 20.08 40.45 C20.14 40.32 19.99 40.23 20.03 40.07 C20.07 40.01 19.99 39.94 19.98 39.86 C19.97 39.84
							 19.99 39.82 20.02 39.8 C20 39.72 19.97 39.66 19.98 39.57 C19.99 39.48 19.95 39.34 19.88 39.26 C19.86
							 39.24 19.83 39.2 19.78 39.2 C19.71 39.22 19.61 39.21 19.55 39.24 C19.31 39.43 19.07 39.63 18.83 39.86
							 C18.83 39.86 18.82 39.88 18.81 39.9 C18.7 39.97 18.59 40.1 18.51 40.19 C18.48 40.2 18.45 40.21 18.44
							 40.19 C18.45 40.16 18.46 40.07 18.52 40.06 C18.51 40.05 18.51 40.05 18.51 40.03 C18.49 40.02 18.52 40.02
							 18.54 40 C18.56 39.98 18.56 39.94 18.59 39.9 C18.62 39.85 18.7 39.82 18.73 39.76 C18.79 39.68 18.84
							 39.59 18.9 39.49 C18.94 39.46 18.98 39.39 19.02 39.35 C19.15 39.2 19.28 39.08 19.34 38.91 C19.38 38.81
							 19.3 38.7 19.21 38.7 C19.1 38.69 19.04 38.63 18.94 38.66 C19 38.76 19.05 38.9 18.97 38.99 C18.92 39.02
							 18.92 39.06 18.9 39.09 C18.84 39.11 18.84 39.14 18.81 39.17 C18.77 39.18 18.73 39.21 18.71 39.19 C18.71
							 39.09 18.69 38.98 18.66 38.86 C18.64 38.68 18.61 38.51 18.53 38.36 C18.51 38.3 18.43 38.14 18.34 38.17
							 C18.28 38.21 18.29 38.36 18.27 38.47 C18.27 38.51 18.25 38.56 18.25 38.59 C18.18 38.85 18.19 39.09 18.21
							 39.31 C18.21 39.43 18.29 39.58 18.23 39.66 C17.93 40.04 17.59 40.36 17.23 40.66 ZM18.97 41.85 C18.98
							 41.83 19 41.82 19.02 41.82 C19.05 41.81 19.05 41.83 19.05 41.84 C19.05 41.87 19.05 41.87 19.03 41.89
							 C19 41.89 18.99 41.89 18.99 41.87 C18.98 41.86 18.97 41.86 18.97 41.85 ZM30.65 40.36 C30.62 40.34 30.63
							 40.4 30.6 40.38 C30.57 40.38 30.56 40.38 30.55 40.38 C30.52 40.41 30.53 40.44 30.54 40.46 C30.6 40.5
							 30.6 40.57 30.66 40.6 C30.72 40.64 30.77 40.68 30.83 40.68 C30.96 40.67 31.11 40.6 31.25 40.64 C31.27
							 40.66 31.25 40.7 31.23 40.73 C31.03 41 30.78 41.22 30.6 41.52 C30.58 41.55 30.55 41.5 30.55 41.53 C30.54
							 41.55 30.53 41.56 30.53 41.58 C30.45 41.61 30.39 41.67 30.33 41.73 C30.18 41.84 29.99 41.87 29.83 41.96
							 C29.88 41.99 29.94 41.99 29.99 41.99 C30.11 41.99 30.24 41.94 30.36 41.89 C30.6 41.79 30.83 41.62 31.08
							 41.47 C31.09 41.45 31.1 41.41 31.1 41.4 C31.11 41.37 31.13 41.4 31.16 41.4 L31.16 41.37 C31.18 41.35
							 31.22 41.37 31.22 41.37 C31.26 41.33 31.3 41.28 31.33 41.22 C31.34 41.21 31.39 41.16 31.42 41.14 C31.56
							 41.03 31.58 40.87 31.72 40.75 C31.86 41.08 32.06 41.37 32.21 41.73 C32.33 42.01 32.39 42.28 32.52 42.55
							 C32.54 42.61 32.59 42.68 32.67 42.7 C32.81 42.73 32.93 42.76 33.05 42.75 C33.11 42.73 33.18 42.76 33.25
							 42.74 C33.3 42.71 33.36 42.77 33.42 42.75 C33.46 42.75 33.51 42.75 33.54 42.71 C33.57 42.67 33.59 42.6
							 33.57 42.55 C33.52 42.47 33.42 42.52 33.35 42.47 C33.05 42.32 32.83 42.1 32.62 41.82 C32.62 41.82 32.55
							 41.78 32.54 41.77 C32.29 41.43 32.08 41.09 31.81 40.76 C31.78 40.72 31.74 40.63 31.8 40.59 C31.87 40.54
							 31.98 40.54 32.1 40.53 C32.24 40.48 32.35 40.43 32.47 40.38 C32.7 40.29 32.93 40.24 33.15 40.09 C33.17
							 40.08 33.22 40.08 33.23 40.06 C33.29 40.01 33.33 39.92 33.3 39.85 C33.25 39.75 33.22 39.64 33.15 39.55
							 C33.1 39.44 33.16 39.29 33.05 39.21 C33.02 39.21 33.01 39.25 33 39.28 C33.02 39.4 33.06 39.53 33.03
							 39.64 C33.02 39.73 32.98 39.81 32.9 39.85 C32.79 39.92 32.67 39.92 32.55 39.95 C32.46 39.98 32.34 39.99
							 32.25 40 C32.24 39.99 32.17 40.04 32.17 39.98 C32.2 39.9 32.26 39.81 32.33 39.74 C32.41 39.64 32.42
							 39.48 32.55 39.39 C32.54 39.38 32.52 39.37 32.53 39.36 C32.74 39.02 32.9 38.68 33.03 38.32 C33.07 38.19
							 33.06 38.03 33.04 37.88 C33.01 37.8 32.94 37.72 32.85 37.72 C32.8 37.72 32.76 37.78 32.74 37.83 C32.5
							 38.28 32.34 38.72 32.15 39.17 C32.01 39.48 31.85 39.8 31.64 40.1 C31.53 40.24 31.29 40.24 31.12 40.28
							 C31.06 40.28 30.98 40.31 30.93 40.31 C30.85 40.32 30.73 40.36 30.65 40.36 ZM2.01 54.43 C2.3 53.19 2.69
							 51.95 3.16 50.76 L3.23 50.59 L1.37 49.83 L1.3 50.02 L1.15 50.4 C1.01 50.76 0.87 51.13 0.75 51.51 L0.69
							 51.69 L1.83 52.07 L1.88 51.88 C1.96 51.62 2.05 51.36 2.15 51.12 L2.17 51.06 L1.81 50.93 L1.79 50.98
							 C1.72 51.18 1.65 51.37 1.58 51.58 C1.42 51.53 1.31 51.49 1.16 51.44 C1.27 51.13 1.39 50.83 1.5 50.54
							 C1.5 50.54 1.53 50.44 1.57 50.33 C1.81 50.43 2.5 50.7 2.73 50.8 C2.3 51.88 1.94 53.01 1.67 54.16 C1.42
							 54.11 0.7 53.94 0.45 53.88 C0.54 53.49 0.65 53.1 0.76 52.72 C0.91 52.76 1.03 52.8 1.18 52.85 C1.1 53.07
							 0.99 53.52 0.99 53.52 L1.35 53.62 L1.65 52.58 L0.51 52.25 L0.43 52.51 C0.29 53 0.15 53.49 0.05 53.99
							 L0 54.17 L1.96 54.62 L2.01 54.43 ZM3.47 50.05 L3.54 49.88 C4.07 48.72 4.7 47.58 5.4 46.51 L5.51 46.36
							 L3.82 45.25 L3.72 45.41 C3.44 45.83 3.17 46.28 2.88 46.77 L2.79 46.93 L3.83 47.52 L4.08 47.09 L4.37
							 46.61 L4.05 46.41 L3.76 46.91 C3.76 46.91 3.72 46.97 3.69 47.02 C3.56 46.94 3.44 46.87 3.31 46.8 C3.52
							 46.44 3.72 46.1 3.93 45.79 C4.16 45.93 4.76 46.33 4.97 46.47 C4.34 47.46 3.78 48.49 3.29 49.55 C3.05
							 49.45 2.38 49.16 2.14 49.04 C2.2 48.92 2.26 48.79 2.26 48.79 C2.4 48.53 2.54 48.24 2.67 47.97 C2.81
							 48.04 2.93 48.1 3.06 48.17 C2.95 48.38 2.83 48.58 2.74 48.8 L3.08 48.96 C3.21 48.7 3.34 48.44 3.48 48.18
							 L3.57 48.01 L2.52 47.46 L2.44 47.61 C2.25 47.95 2.08 48.29 1.93 48.63 L1.64 49.23 L1.81 49.3 L3.47 50.05
							 ZM5.94 45.71 C6.69 44.66 7.51 43.67 8.41 42.75 L8.54 42.62 L7.1 41.21 L6.97 41.35 C6.67 41.65 6.4 41.96
							 6.12 42.27 L5.77 42.67 L5.92 42.79 L6.67 43.45 L7.17 42.89 L7.38 42.65 L7.1 42.4 L6.89 42.62 C6.89 42.62
							 6.75 42.79 6.63 42.91 C6.52 42.81 6.43 42.73 6.31 42.62 C6.36 42.57 6.41 42.52 6.41 42.52 C6.63 42.26
							 6.87 42.01 7.11 41.75 C7.29 41.94 7.82 42.45 7.99 42.62 C7.19 43.47 6.43 44.39 5.75 45.34 C5.55 45.19
							 4.94 44.76 4.73 44.61 C4.92 44.35 5.1 44.1 5.3 43.85 C5.3 43.85 5.38 43.75 5.46 43.65 C5.58 43.75 5.68
							 43.82 5.8 43.92 C5.65 44.1 5.37 44.47 5.37 44.47 L5.68 44.71 L6.33 43.86 L5.39 43.11 L5 43.62 C4.77
							 43.92 4.54 44.23 4.32 44.55 L4.21 44.71 L5.84 45.87 L5.94 45.71 ZM9.1 42.08 C10.03 41.18 11.04 40.36
							 12.08 39.64 L12.24 39.53 L11.09 37.88 L10.93 38 L10.59 38.24 C10.27 38.46 9.96 38.7 9.66 38.94 L9.51
							 39.06 L10.25 39.99 L10.39 39.87 C10.57 39.73 10.83 39.53 11.08 39.34 L10.86 39.04 C10.66 39.18 10.47
							 39.33 10.3 39.46 C10.2 39.33 10.13 39.24 10.03 39.12 C10.28 38.92 10.54 38.73 10.8 38.54 C10.8 38.54
							 10.88 38.47 10.98 38.41 C11.13 38.63 11.55 39.21 11.69 39.43 C10.74 40.1 9.82 40.85 8.96 41.65 C8.79
							 41.48 8.28 40.94 8.1 40.76 C8.41 40.47 8.71 40.2 9 39.95 C9.1 40.07 9.18 40.16 9.27 40.28 C9.23 40.33
							 9.18 40.37 9.18 40.37 L8.74 40.75 L9 41.02 L9.43 40.65 L9.81 40.32 L9.69 40.18 L9.04 39.41 L8.89 39.53
							 C8.51 39.85 8.11 40.21 7.7 40.61 L7.56 40.74 L8.94 42.19 L9.1 42.08 ZM12.73 39.21 L12.88 39.1 C13.97
							 38.42 15.11 37.82 16.28 37.31 L16.45 37.23 L15.66 35.4 L15.5 35.47 C15.02 35.66 14.58 35.89 14.04 36.15
							 L13.89 36.24 L14.41 37.29 L15.37 36.82 L15.21 36.48 C15.21 36.48 14.79 36.69 14.58 36.79 C14.52 36.65
							 14.45 36.54 14.38 36.39 C14.77 36.2 15.11 36.04 15.45 35.88 C15.55 36.13 15.84 36.8 15.95 37.03 C14.88
							 37.51 13.83 38.06 12.84 38.68 C12.7 38.46 12.3 37.85 12.17 37.63 C12.22 37.6 12.27 37.56 12.27 37.56
							 C12.58 37.38 12.89 37.19 13.21 37.02 C13.29 37.15 13.34 37.26 13.43 37.4 C13.24 37.51 13.05 37.61 12.88
							 37.71 L12.81 37.75 L13.01 38.08 L13.07 38.04 C13.31 37.9 13.53 37.76 13.77 37.64 L13.94 37.55 L13.37
							 36.51 L13.2 36.59 C12.82 36.79 12.44 37.03 12.08 37.25 L11.66 37.51 L11.76 37.68 L12.73 39.21 ZM17.18
							 36.94 C18.37 36.47 19.61 36.1 20.87 35.82 L21.05 35.79 L20.62 33.82 L20.44 33.87 L20.26 33.9 C19.81
							 34 19.34 34.12 18.9 34.24 L18.72 34.3 L19.05 35.45 L19.85 35.23 L20.07 35.17 L19.98 34.79 L19.76 34.85
							 C19.76 34.85 19.49 34.93 19.3 34.98 C19.26 34.84 19.22 34.71 19.18 34.56 C19.56 34.45 19.95 34.37 20.34
							 34.27 C20.39 34.53 20.55 35.24 20.6 35.49 C19.46 35.74 18.32 36.1 17.23 36.51 C17.13 36.27 16.88 35.59
							 16.78 35.35 C17.13 35.22 17.47 35.09 17.82 34.98 C17.82 34.98 17.87 34.96 17.91 34.94 C17.96 35.09 18
							 35.22 18.03 35.35 C17.82 35.43 17.37 35.58 17.37 35.58 L17.49 35.93 L18.52 35.59 L18.15 34.46 L17.69
							 34.62 C17.28 34.75 16.86 34.9 16.45 35.07 L16.28 35.14 L17.01 37 L17.18 36.94 ZM21.63 35.66 L21.82 35.64
							 C23.06 35.42 24.35 35.29 25.65 35.27 L25.83 35.27 L25.78 33.26 L25.6 33.26 C25.1 33.26 24.59 33.31 24.09
							 33.33 L23.83 33.35 L23.92 34.55 L25 34.47 L24.97 34.09 C24.97 34.09 24.5 34.13 24.27 34.14 C24.25 33.99
							 24.25 33.86 24.24 33.7 C24.63 33.68 25.02 33.66 25.42 33.65 C25.42 33.91 25.45 34.64 25.45 34.89 C24.27
							 34.93 23.09 35.05 21.93 35.23 C21.89 34.98 21.76 34.27 21.72 34.01 C21.86 33.98 22.04 33.95 22.04 33.95
							 C22.32 33.91 22.62 33.87 22.92 33.83 C22.94 33.98 22.95 34.11 22.97 34.26 C22.75 34.28 22.52 34.32 22.27
							 34.36 L22.33 34.73 C22.62 34.69 22.92 34.64 23.21 34.62 L23.39 34.59 L23.26 33.43 L23.08 33.44 C22.7
							 33.47 22.34 33.53 21.99 33.59 L21.29 33.7 L21.32 33.88 L21.63 35.66 ZM30.45 35.62 L30.63 35.66 L30.98
							 33.67 L30.4 33.58 C30.01 33.52 29.61 33.46 29.22 33.42 L29.04 33.4 L28.9 34.59 L29.09 34.61 C29.36 34.64
							 29.67 34.67 29.96 34.72 L30.02 34.34 C29.79 34.3 29.55 34.27 29.32 34.24 C29.33 34.08 29.35 33.96 29.37
							 33.82 C29.7 33.85 30.04 33.9 30.35 33.95 C30.35 33.95 30.45 33.96 30.55 33.99 C30.51 34.24 30.38 34.96
							 30.33 35.22 C29.22 35.02 28.04 34.91 26.83 34.89 C26.83 34.63 26.83 33.89 26.84 33.64 C27.2 33.65 27.58
							 33.66 28.05 33.7 C28.03 33.85 28.03 33.96 28.01 34.12 C27.78 34.11 27.31 34.07 27.31 34.07 L27.29 34.45
							 L28.35 34.52 L28.45 33.33 L28.26 33.32 C27.61 33.27 27.12 33.25 26.65 33.25 L26.46 33.25 L26.46 33.44
							 L26.42 35.25 L26.61 35.26 C27.96 35.28 29.24 35.4 30.45 35.62 ZM35.08 36.9 L35.27 36.96 L35.98 35.1
							 L35.81 35.03 C35.45 34.88 35.07 34.76 34.71 34.64 L34.13 34.44 L34.06 34.62 L33.76 35.57 L34.78 35.91
							 L34.9 35.55 C34.9 35.55 34.46 35.4 34.25 35.32 C34.29 35.18 34.33 35.06 34.38 34.91 C34.48 34.95 34.6
							 34.99 34.6 34.99 C34.9 35.1 35.2 35.2 35.49 35.32 C35.41 35.55 35.14 36.24 35.05 36.48 C33.95 36.06
							 32.81 35.73 31.67 35.47 C31.72 35.22 31.87 34.51 31.93 34.25 C32.33 34.34 32.72 34.44 33.1 34.54 C33.05
							 34.69 33.03 34.81 32.98 34.96 C32.81 34.91 32.6 34.86 32.6 34.86 L32.3 34.79 L32.2 35.15 L32.51 35.24
							 L33.24 35.42 L33.3 35.25 L33.57 34.28 L33.39 34.23 C32.9 34.09 32.36 33.96 31.81 33.84 L31.64 33.81
							 L31.6 33.99 L31.21 35.76 L31.4 35.8 C32.66 36.06 33.9 36.44 35.08 36.9 ZM35.99 37.27 C37.16 37.78 38.31
							 38.37 39.4 39.06 L39.56 39.16 L40.64 37.46 L40.08 37.12 C39.77 36.93 39.43 36.73 39.1 36.56 L38.94 36.47
							 L38.37 37.51 L38.53 37.61 C38.81 37.76 39.07 37.9 39.29 38.03 L39.49 37.71 C39.3 37.61 39.11 37.49 38.89
							 37.37 C38.96 37.23 39.02 37.12 39.09 36.99 C39.36 37.13 39.63 37.29 39.89 37.45 C39.89 37.45 40.01 37.51
							 40.11 37.59 C39.98 37.8 39.59 38.43 39.45 38.64 C38.45 38.02 37.41 37.47 36.33 37 C36.43 36.76 36.73
							 36.1 36.82 35.86 C37.14 36 37.5 36.15 37.92 36.37 C37.84 36.52 37.79 36.62 37.72 36.76 C37.51 36.65
							 37.09 36.44 37.09 36.44 L36.92 36.79 L37.89 37.25 L38.43 36.19 L38.26 36.1 C37.69 35.81 37.24 35.6 36.8
							 35.42 L36.63 35.35 L36.56 35.52 L35.84 37.19 L35.99 37.27 ZM40.2 39.58 C41.26 40.31 42.27 41.13 43.19
							 42.01 L43.34 42.13 L44.71 40.67 L44.58 40.55 C44.19 40.19 43.8 39.83 43.39 39.48 L43.24 39.36 L42.47
							 40.28 L42.86 40.6 L43.29 40.97 L43.55 40.7 L43.1 40.32 C43.1 40.32 43.06 40.27 43.01 40.24 C43.1 40.12
							 43.17 40.03 43.29 39.92 C43.59 40.17 43.89 40.43 44.17 40.7 C44 40.89 43.5 41.42 43.32 41.6 C42.46 40.8
							 41.54 40.05 40.57 39.38 C40.71 39.18 41.13 38.57 41.29 38.35 C41.39 38.44 41.5 38.51 41.5 38.51 C41.75
							 38.69 42.01 38.87 42.26 39.07 C42.17 39.19 42.09 39.29 42 39.41 C41.81 39.26 41.61 39.11 41.42 38.98
							 L41.2 39.3 C41.44 39.46 41.68 39.64 41.91 39.82 L42.05 39.94 L42.78 39 L42.64 38.89 C42.34 38.64 42.02
							 38.42 41.71 38.2 L41.19 37.82 L41.08 37.97 L40.05 39.48 L40.2 39.58 ZM43.89 42.68 C44.73 43.52 45.48
							 44.44 46.17 45.39 C46.12 45.43 46.07 45.49 46.02 45.53 C46.01 45.54 45.99 45.51 45.97 45.5 C45.93 45.53
							 45.9 45.56 45.85 45.52 L45.85 45.55 C45.83 45.57 45.82 45.51 45.8 45.52 C45.76 45.56 45.7 45.56 45.63
							 45.56 C45.53 45.57 45.42 45.57 45.32 45.59 C45.28 45.6 45.25 45.56 45.2 45.57 C45.07 45.57 44.96 45.58
							 44.83 45.57 C44.82 45.58 44.77 45.58 44.77 45.59 C44.64 45.59 44.49 45.61 44.41 45.51 C44.28 45.42 44.16
							 45.37 44.07 45.23 C44.06 45.22 44.04 45.24 44.03 45.25 C44.04 45.34 44.06 45.44 44.07 45.54 C44.01 45.54
							 43.94 45.51 43.89 45.49 C43.87 45.52 43.87 45.58 43.9 45.59 C43.92 45.62 43.94 45.63 43.97 45.66 C44
							 45.68 44.04 45.66 44.07 45.67 C44.11 45.7 44.17 45.72 44.2 45.76 C44.31 45.87 44.47 45.93 44.52 46.1
							 C44.54 46.12 44.45 46.17 44.41 46.17 C44.27 46.16 44.16 46.1 44.01 46.08 C43.9 46.05 43.83 45.98 43.78
							 45.88 C43.66 46.04 43.48 45.95 43.32 45.91 C43.41 45.8 43.5 45.68 43.56 45.58 C43.58 45.54 43.58 45.48
							 43.6 45.46 C43.65 45.37 43.66 45.28 43.7 45.21 C43.81 45 43.83 44.76 43.86 44.52 C43.87 44.49 43.85
							 44.44 43.81 44.43 C43.75 44.52 43.73 44.62 43.68 44.75 C43.67 44.76 43.63 44.79 43.61 44.8 C43.53 45.02
							 43.45 45.25 43.27 45.41 C43.28 45.42 43.28 45.44 43.27 45.46 C43.25 45.48 43.22 45.5 43.19 45.5 C43.15
							 45.61 43.09 45.67 42.99 45.75 C42.97 45.76 42.93 45.78 42.95 45.83 C42.93 45.83 42.92 45.82 42.92 45.8
							 C42.9 45.82 42.88 45.83 42.88 45.84 C42.81 45.84 42.73 45.82 42.76 45.76 C42.8 45.53 42.98 45.27 42.88
							 45.05 C42.74 45.17 42.6 45.31 42.49 45.48 C42.42 45.56 42.34 45.63 42.32 45.72 C42.28 45.83 42.25 45.93
							 42.25 46.03 C42.25 46.05 42.28 46.07 42.29 46.09 C42.44 46.03 42.59 46 42.76 45.99 C42.86 46 42.98 46.01
							 43.09 46.05 C43.24 46.1 43.4 46.06 43.52 46.16 C43.58 46.21 43.66 46.14 43.7 46.23 C43.7 46.24 43.68
							 46.27 43.67 46.27 C43.39 46.29 43.13 46.29 42.86 46.3 C42.9 46.4 43 46.41 43.1 46.44 C43.1 46.46 43.13
							 46.48 43.14 46.5 C43.33 46.51 43.52 46.46 43.7 46.55 C43.72 46.56 43.7 46.57 43.68 46.58 C43.73 46.64
							 43.74 46.71 43.73 46.79 C43.73 46.81 43.78 46.78 43.79 46.8 C43.83 46.77 43.83 46.73 43.87 46.68 C43.92
							 46.63 43.92 46.51 44 46.51 C44.13 46.52 44.26 46.51 44.38 46.5 C44.43 46.48 44.49 46.48 44.58 46.46
							 C44.61 46.46 44.63 46.53 44.65 46.54 C44.73 46.53 44.77 46.58 44.8 46.6 C44.94 46.67 45.08 46.73 45.21
							 46.77 C45.3 46.82 45.36 46.87 45.44 46.88 C45.55 46.91 45.62 46.96 45.7 47.01 C45.72 47.02 45.78 47.05
							 45.79 47.09 C45.8 47.1 45.78 47.14 45.78 47.14 C45.73 47.15 45.7 47.2 45.65 47.15 C45.65 47.15 45.63
							 47.18 45.6 47.19 C45.59 47.19 45.58 47.18 45.58 47.17 C45.55 47.17 45.55 47.19 45.55 47.2 C45.47 47.21
							 45.38 47.21 45.32 47.21 C44.83 47.26 44.37 47.34 43.9 47.26 C43.86 47.26 43.82 47.18 43.77 47.16 C43.84
							 47.08 43.98 47.13 44.07 47.14 C44.14 47.14 44.24 47.14 44.3 47.12 C44.36 47.09 44.43 47.1 44.48 47.07
							 C44.5 47.05 44.53 47.05 44.55 47.07 C44.56 47.07 44.57 47.07 44.59 47.04 C44.61 47.02 44.56 47 44.58
							 46.98 C44.63 46.95 44.65 46.93 44.65 46.87 C44.66 46.87 44.68 46.83 44.68 46.83 C44.67 46.79 44.7 46.74
							 44.69 46.7 C44.67 46.65 44.62 46.58 44.58 46.61 C44.48 46.63 44.41 46.7 44.31 46.75 C44.14 46.82 43.99
							 46.83 43.8 46.89 C43.8 46.9 43.74 46.92 43.71 46.87 C43.68 46.9 43.65 46.92 43.63 46.87 C43.57 46.97
							 43.47 46.84 43.38 46.87 C43.37 46.88 43.35 46.89 43.36 46.9 C43.46 47 43.61 47.04 43.7 47.12 C43.75
							 47.18 43.62 47.21 43.58 47.27 C43.57 47.25 43.54 47.31 43.52 47.28 C43.47 47.24 43.41 47.2 43.33 47.17
							 C43.31 47.17 43.29 47.11 43.27 47.09 C43.2 47.12 43.15 47.04 43.12 47.03 C43.01 46.98 42.89 46.93 42.79
							 46.86 C42.78 46.82 42.72 46.82 42.66 46.82 C42.64 46.8 42.62 46.78 42.61 46.76 C42.56 46.76 42.52 46.75
							 42.47 46.73 C42.41 46.7 42.34 46.66 42.28 46.65 L42.24 46.61 C42.17 46.63 42.17 46.55 42.1 46.55 C42.08
							 46.55 42.04 46.51 42.03 46.48 C41.9 46.44 41.81 46.38 41.69 46.34 C41.67 46.33 41.67 46.36 41.69 46.37
							 C41.69 46.39 41.71 46.41 41.72 46.44 C41.72 46.44 41.72 46.45 41.71 46.46 C41.8 46.58 41.93 46.66 42.04
							 46.77 C42.37 47.04 42.73 47.23 43.11 47.43 C43.12 47.43 43.17 47.47 43.19 47.5 L43.22 47.48 C43.27 47.5
							 43.32 47.53 43.38 47.55 C43.37 47.58 43.39 47.62 43.35 47.63 C42.95 47.59 42.61 47.5 42.19 47.51 C42.16
							 47.53 42.12 47.57 42.1 47.51 C42.06 47.55 42 47.54 42 47.55 C41.89 47.6 41.72 47.7 41.67 47.55 L41.67
							 47.58 C41.32 47.36 40.98 47.17 40.62 46.98 C40.41 46.87 40.2 46.78 39.96 46.73 C39.95 46.73 39.92 46.69
							 39.91 46.68 C39.88 46.73 39.84 46.66 39.83 46.68 C39.77 46.73 39.69 46.75 39.7 46.8 C39.7 47.06 39.96
							 47.17 40.2 47.24 C40.28 47.27 40.36 47.29 40.42 47.34 C40.54 47.42 40.68 47.42 40.77 47.54 C40.79 47.57
							 40.81 47.51 40.84 47.53 C40.88 47.58 40.97 47.58 41 47.67 C41.02 47.69 41.04 47.63 41.06 47.66 C41.09
							 47.69 41.1 47.72 41.13 47.75 C41.25 47.8 41.37 47.87 41.5 47.92 C41.57 47.94 41.47 48.02 41.45 48.06
							 C41.13 48.4 40.8 48.71 40.41 48.95 C40.15 48.94 39.98 48.7 39.84 48.5 C39.83 48.48 39.84 48.47 39.84
							 48.46 C39.7 48.33 39.7 48.12 39.57 47.96 C39.55 47.97 39.54 48.02 39.55 48.06 C39.6 48.33 39.67 48.59
							 39.77 48.84 C39.79 48.89 39.84 48.94 39.84 48.98 C39.84 49.04 39.89 49.06 39.91 49.09 C39.97 49.18 40.01
							 49.28 40.08 49.32 C40.16 49.35 40.24 49.35 40.3 49.32 C40.48 49.21 40.64 49.04 40.8 48.92 C40.86 48.87
							 40.91 48.84 40.96 48.79 C40.98 48.77 40.95 48.75 40.97 48.75 C41.02 48.7 41.1 48.67 41.13 48.61 C41.17
							 48.58 41.24 48.53 41.28 48.48 C41.28 48.46 41.26 48.45 41.28 48.44 C41.32 48.39 41.4 48.38 41.43 48.33
							 C41.52 48.2 41.57 48.08 41.69 48.02 C41.76 47.99 41.84 48.08 41.93 48.1 C41.93 48.12 41.95 48.14 41.97
							 48.16 C42.07 48.14 42.08 48.24 42.15 48.24 C42.2 48.26 42.2 48.31 42.24 48.34 C42.25 48.36 42.27 48.33
							 42.28 48.34 C42.32 48.38 42.41 48.48 42.34 48.5 C42.12 48.58 41.88 48.42 41.63 48.41 C41.64 48.42 41.64
							 48.42 41.65 48.44 C41.66 48.45 41.64 48.47 41.64 48.48 C41.76 48.6 41.93 48.62 42.06 48.74 C42.09 48.72
							 42.1 48.73 42.12 48.73 C42.24 48.82 42.38 48.79 42.52 48.84 C42.55 48.84 42.59 48.86 42.59 48.89 C42.62
							 48.84 42.66 48.91 42.69 48.9 C42.8 48.84 42.74 48.71 42.76 48.61 C42.76 48.53 42.68 48.48 42.63 48.43
							 C42.46 48.14 42.14 47.95 41.93 47.68 C41.98 47.64 42.07 47.63 42.12 47.66 C42.27 47.75 42.44 47.78 42.61
							 47.83 C42.62 47.84 42.63 47.87 42.65 47.89 C42.67 47.91 42.69 47.85 42.71 47.89 L42.75 47.92 C42.89
							 47.95 43 48.03 43.16 48.02 C43.2 48.01 43.24 48.09 43.27 48.1 C43.29 48.09 43.32 48.09 43.32 48.06 C43.36
							 48.06 43.4 48.08 43.44 48.09 C43.47 48.03 43.51 48.09 43.57 48.08 C43.58 48.06 43.63 48.05 43.65 48.1
							 C43.73 48.06 43.8 48.07 43.88 48.09 C43.9 48.09 43.91 48.07 43.92 48.06 C44.02 48.08 44.14 48.07 44.19
							 47.97 C44.23 47.89 44.19 47.76 44.13 47.65 C44.11 47.63 44.09 47.52 44.18 47.55 C44.29 47.59 44.43 47.58
							 44.55 47.57 C44.57 47.58 44.62 47.6 44.65 47.58 C44.68 47.56 44.69 47.59 44.7 47.6 C44.93 47.56 45.14
							 47.6 45.36 47.55 C45.42 47.56 45.45 47.57 45.5 47.59 C45.5 47.56 45.56 47.58 45.55 47.54 C45.65 47.55
							 45.74 47.53 45.83 47.53 C45.9 47.54 45.97 47.55 46.05 47.57 C46.09 47.58 46.14 47.55 46.19 47.53 C46.28
							 47.51 46.29 47.38 46.28 47.32 C46.27 47.25 46.26 47.16 46.19 47.12 C46.12 47.07 46.09 46.98 46 46.96
							 C45.94 46.95 45.91 46.88 45.86 46.82 C45.84 46.8 45.82 46.86 45.8 46.82 C45.77 46.78 45.72 46.75 45.68
							 46.71 C45.44 46.58 45.17 46.45 44.91 46.33 C44.91 46.31 44.9 46.31 44.9 46.28 C44.94 46.1 44.85 45.95
							 44.74 45.8 C44.75 45.78 44.75 45.74 44.79 45.73 C45.03 45.73 45.23 45.76 45.45 45.78 C45.48 45.8 45.5
							 45.8 45.52 45.83 C45.8 45.8 46.08 45.94 46.28 45.7 C46.3 45.69 46.28 45.66 46.28 45.65 C46.31 45.62
							 46.31 45.59 46.33 45.56 C46.33 45.57 46.35 45.58 46.35 45.59 L46.47 45.74 L48.1 44.58 L47.98 44.42 C47.77
							 44.11 47.54 43.81 47.3 43.51 L46.91 43.01 L46.76 43.13 L45.98 43.76 L46.64 44.6 L46.94 44.37 C46.94
							 44.37 46.66 44 46.51 43.81 C46.64 43.71 46.72 43.64 46.85 43.55 C46.93 43.64 47.01 43.75 47.01 43.75
							 C47.21 43.98 47.39 44.23 47.57 44.48 C47.36 44.64 46.76 45.06 46.55 45.21 C45.87 44.26 45.11 43.35 44.29
							 42.51 C44.46 42.33 44.99 41.82 45.18 41.63 C45.41 41.86 45.63 42.11 45.84 42.35 C45.84 42.35 45.92 42.43
							 45.99 42.52 C45.88 42.62 45.78 42.71 45.67 42.81 C45.55 42.68 45.41 42.52 45.41 42.52 L45.2 42.28 L44.92
							 42.53 L45.13 42.78 L45.64 43.32 L45.77 43.21 L46.54 42.55 L46.13 42.09 C45.87 41.81 45.6 41.51 45.32
							 41.23 L45.19 41.14 L45.05 41.27 L43.75 42.55 L43.89 42.68 Z" class="st1"/>
			</g>
			<g id="shape10-17" v:mID="10" v:groupContext="shape" transform="translate(0.290515,-5.32847)">
				<title>工作表.10</title>
				<path d="M48.78 18.79 C49.48 19.86 50.11 21 50.64 22.16 L50.73 22.34 L52.55 21.51 L52.26 20.9 C52.1 20.58 51.95 20.23
							 51.77 19.91 L51.67 19.75 L50.61 20.31 L50.71 20.48 C50.85 20.74 50.99 21 51.12 21.27 L51.46 21.1 C51.37
							 20.89 51.26 20.68 51.14 20.47 C51.28 20.4 51.39 20.34 51.53 20.27 C51.68 20.53 51.8 20.81 51.92 21.08
							 C51.92 21.08 51.99 21.2 52.05 21.32 C51.8 21.44 51.14 21.73 50.91 21.84 C50.42 20.77 49.85 19.74 49.2
							 18.75 C49.41 18.62 50.03 18.22 50.24 18.07 C50.46 18.4 50.68 18.74 50.88 19.1 C50.74 19.17 50.64 19.23
							 50.5 19.32 C50.48 19.25 50.44 19.2 50.44 19.2 L50.15 18.7 L49.81 18.9 L50.11 19.39 L50.35 19.82 L50.53
							 19.73 L51.39 19.23 L51.3 19.07 C51.04 18.6 50.74 18.13 50.46 17.7 L50.36 17.55 L50.2 17.65 L48.68 18.66
							 L48.78 18.79 ZM51.02 23.05 C51.51 24.24 51.9 25.47 52.19 26.72 L52.23 26.91 L54.18 26.45 L54.14 26.26
							 C54.04 25.76 53.89 25.27 53.75 24.78 L53.68 24.54 L52.53 24.87 L52.84 25.9 L53.19 25.8 C53.19 25.8 53.07
							 25.36 53.02 25.13 C53.16 25.09 53.28 25.05 53.43 25.02 C53.53 25.39 53.64 25.78 53.73 26.16 C53.48 26.21
							 52.76 26.38 52.51 26.44 C52.23 25.3 51.87 24.17 51.44 23.08 C51.68 22.97 52.34 22.71 52.59 22.61 C52.63
							 22.7 52.66 22.78 52.66 22.78 C52.79 23.09 52.9 23.42 53.02 23.73 C52.86 23.79 52.75 23.83 52.6 23.88
							 C52.52 23.67 52.45 23.45 52.38 23.24 L52.36 23.22 L52.01 23.36 L52.02 23.38 C52.12 23.63 52.21 23.92
							 52.31 24.18 L52.36 24.36 L53.49 23.98 L53.43 23.8 C53.31 23.41 53.15 23.02 53.02 22.65 L52.8 22.12 L52.62
							 22.19 L50.95 22.87 L51.02 23.05 ZM13.98 54.17 L14.47 54.48 L14.62 54.24 L14.16 53.94 C14.28 53.49 13.99
							 52.49 13.33 51.81 C12.63 51.05 12.43 50.37 12.63 49.78 C12.63 49.78 11.9 50.59 11.95 51.32 C12 51.93
							 11.25 51.32 10.93 51.67 C10.6 52.05 11.42 52.64 10.73 52.77 C9.95 52.91 9.25 53.58 9.25 53.58 C10.13
							 53.46 10.6 53.5 11.6 54.11 C12.47 54.62 13.57 54.44 13.98 54.17 ZM10.61 51.2 C10.8 50.79 10.7 49.75
							 10.18 48.95 C9.6 48.08 9.53 47.38 9.82 46.84 C9.82 46.85 8.98 47.51 8.89 48.24 C8.84 48.84 8.22 48.14
							 7.83 48.41 L7.94 48.32 L7.61 47.89 C7.85 47.52 7.94 46.48 7.55 45.61 C7.14 44.65 7.19 43.96 7.58 43.47
							 C7.58 43.47 6.63 43.99 6.42 44.69 C6.26 45.26 5.77 44.46 5.34 44.66 L5.47 44.59 C5.38 44.44 5.3 44.27
							 5.22 44.11 C5.54 43.79 5.78 42.77 5.58 41.84 C5.34 40.84 5.49 40.16 5.97 39.75 C5.97 39.75 4.92 40.09
							 4.61 40.75 C4.36 41.28 4.02 40.41 3.56 40.53 L3.68 40.49 L3.53 39.97 C3.9 39.71 4.32 38.75 4.27 37.8
							 C4.2 36.76 4.49 36.13 5.02 35.8 C5.02 35.8 3.94 35.96 3.52 36.54 C3.17 37.03 2.98 36.08 2.51 36.16 C2.01
							 36.22 2.27 37.21 1.64 36.86 C0.97 36.46 0 36.53 0 36.53 C0.75 37.01 1.06 37.34 1.45 38.44 C1.79 39.39
							 2.76 39.97 3.23 40.03 L3.42 40.58 L3.54 40.54 C3.09 40.71 3.5 41.6 2.83 41.38 C2.08 41.11 1.14 41.35
							 1.14 41.35 C1.97 41.67 2.35 41.95 2.91 42.96 C3.42 43.84 4.47 44.24 4.94 44.21 C5.02 44.39 5.12 44.56
							 5.21 44.72 L5.33 44.66 C4.91 44.9 5.47 45.73 4.78 45.61 C4 45.46 3.12 45.87 3.12 45.87 C3.98 46.06 4.41
							 46.27 5.14 47.16 C5.79 47.94 6.89 48.15 7.35 48.04 L7.71 48.5 L7.81 48.42 C7.45 48.73 8.14 49.43 7.43
							 49.45 C6.64 49.45 5.84 50 5.84 50 C6.72 50.02 7.17 50.16 8.05 50.91 C8.82 51.57 9.96 51.58 10.39 51.4
							 C10.53 51.53 10.69 51.66 10.82 51.79 L10.92 51.68 L11.01 51.57 C10.88 51.45 10.74 51.33 10.61 51.2 Z"
						class="st1"/>
			</g>
			<g id="shape11-19" v:mID="11" v:groupContext="shape" transform="translate(0,-23.7655)">
				<title>工作表.11</title>
				<path d="M2.58 54.05 C2.6 54.24 2.63 54.43 2.66 54.62 L2.94 54.58 C2.92 54.39 2.88 54.22 2.86 54.03 C3.27 53.85 3.87
							 52.97 3.98 52.03 C4.1 51.01 4.49 50.42 5.09 50.19 C5.09 50.19 4 50.16 3.46 50.67 C3.02 51.09 3.03 50.13
							 2.54 50.11 C2.04 50.08 2.11 51.09 1.57 50.65 C0.96 50.14 0 50.04 0 50.04 C0.65 50.64 0.91 51.03 1.1
							 52.16 C1.27 53.17 2.13 53.9 2.58 54.05 Z" class="st1"/>
			</g>
			<g id="shape12-21" v:mID="12" v:groupContext="shape" transform="translate(0.566858,-5.32847)">
				<title>工作表.12</title>
				<path d="M1.85 31.09 L1.84 31.66 L2.13 31.68 L2.14 31.13 C2.59 31.01 3.31 30.25 3.59 29.34 C3.88 28.35 4.38 27.85
							 4.98 27.72 C4.97 27.72 3.91 27.51 3.32 27.91 C2.81 28.25 2.96 27.3 2.48 27.2 C2.01 27.09 1.91 28.11
							 1.45 27.57 C0.92 26.96 0 26.7 0 26.7 C0.57 27.4 0.72 27.82 0.72 28.98 C0.7 30 1.43 30.87 1.85 31.09
							 ZM49.38 44.7 C49.07 43.98 48.24 43.49 48.24 43.48 C48.6 44.23 48.68 44.68 48.23 45.61 C47.85 46.42 48
							 47.48 48.22 47.9 L47.86 48.35 L47.98 48.44 C47.6 48.14 47.04 48.94 46.9 48.26 C46.72 47.51 45.99 46.87
							 45.99 46.86 C46.21 47.66 46.21 48.11 45.61 48.96 C45.09 49.68 45.06 50.74 45.2 51.21 C45.06 51.35 44.92
							 51.46 44.77 51.6 L44.87 51.71 C44.55 51.35 43.87 52.05 43.84 51.35 C43.8 50.57 43.17 49.82 43.17 49.82
							 C43.26 50.63 43.17 51.08 42.44 51.81 C41.81 52.43 41.59 53.48 41.65 53.95 L41.17 54.26 L41.32 54.51
							 L41.78 54.22 C42.14 54.51 43.23 54.62 44.19 54.11 C45.2 53.56 45.94 53.39 46.55 53.61 C46.55 53.61 45.82
							 52.83 45.07 52.78 C44.45 52.75 45.21 52.08 44.87 51.71 L44.97 51.81 C45.11 51.69 45.24 51.57 45.38 51.44
							 C45.77 51.68 46.89 51.6 47.73 50.93 C48.62 50.2 49.32 49.91 49.97 50.03 C49.97 50.03 49.11 49.38 48.37
							 49.47 C47.74 49.54 48.37 48.75 47.99 48.44 L48.11 48.53 L48.45 48.09 C48.87 48.26 49.93 47.99 50.66
							 47.18 C51.42 46.31 52.04 45.9 52.71 45.91 C52.71 45.91 51.75 45.42 51.03 45.64 C50.43 45.81 50.92 44.92
							 50.49 44.69 C50.05 44.47 49.65 45.34 49.38 44.7 Z" class="st1"/>
			</g>
			<g id="shape13-23" v:mID="13" v:groupContext="shape" transform="translate(50.4291,-15.1776)">
				<title>工作表.13</title>
				<path d="M4.31 46.73 C3.8 47.1 3.94 46.1 3.44 46.03 C2.97 45.96 2.91 46.92 2.44 46.41 C1.91 45.85 0.94 45.67 0.94
							 45.67 C1.52 46.24 1.75 46.63 1.67 47.67 C1.59 48.55 2.1 49.49 2.45 49.82 L2.27 50.37 L2.39 50.4 C1.94
							 50.28 1.71 51.2 1.33 50.62 C0.91 49.97 0 49.62 0 49.62 C0.48 50.28 0.64 50.7 0.37 51.71 C0.13 52.58
							 0.47 53.58 0.75 53.97 C0.67 54.14 0.57 54.31 0.48 54.48 L0.62 54.55 L0.74 54.62 C0.84 54.46 0.92 54.3
							 0.99 54.12 C1.44 54.21 2.47 53.76 3.03 52.85 C3.62 51.85 4.17 51.34 4.83 51.24 C4.83 51.24 3.8 50.92
							 3.12 51.25 C2.57 51.52 2.89 50.59 2.44 50.42 L2.57 50.46 L2.74 49.94 C3.18 49.94 4.1 49.32 4.5 48.32
							 C4.92 47.24 5.36 46.64 5.97 46.42 C5.97 46.41 4.9 46.27 4.31 46.73 Z" class="st1"/>
			</g>
			<g id="shape14-25" v:mID="14" v:groupContext="shape" transform="translate(51.6054,-23.7443)">
				<title>工作表.14</title>
				<path d="M3.5 50.64 C3.07 51.09 3.03 50.08 2.54 50.1 C2.05 50.11 2.16 51.08 1.59 50.67 C0.97 50.19 0 50.18 0 50.18
							 C0.69 50.64 0.97 50.99 1.06 52.03 C1.15 52.91 1.8 53.75 2.2 54 C2.19 54.19 2.16 54.39 2.13 54.58 L2.42
							 54.62 C2.44 54.44 2.49 54.25 2.49 54.07 C2.94 53.99 3.74 53.22 3.94 52.15 C4.18 51.03 4.5 50.35 5.08
							 50.03 C5.09 50.03 4 50.09 3.5 50.64 Z" class="st1"/>
			</g>
			<g id="shape15-27" v:mID="15" v:groupContext="shape" transform="translate(20.8391,-1.26126)">
				<title>工作表.15</title>
				<path d="M32.81 23.14 C32.32 23.24 32.59 24.16 31.97 23.85 C31.28 23.5 30.31 23.65 30.31 23.65 C31.05 23.99 31.42
							 24.29 31.67 25.28 C31.91 26.15 32.69 26.86 33.14 27.05 L33.16 27.62 L33.45 27.61 L33.44 27.06 C33.85
							 26.91 34.51 26.01 34.54 24.93 C34.58 23.78 34.76 23.06 35.29 22.64 C35.29 22.64 34.24 22.88 33.83 23.51
							 C33.47 24.03 33.28 23.02 32.81 23.14 ZM13.24 52.52 C13.14 52.56 13.09 52.59 13.05 52.64 C13 52.04 13.24
							 51.81 13.46 51.68 L13.43 51.6 C12.77 51.88 12.59 52.55 12.75 53.11 C12.94 53.84 13.31 53.94 13.51 53.88
							 C13.92 53.77 13.87 53.22 13.84 53.06 C13.68 52.53 13.39 52.48 13.24 52.52 ZM13.5 53.8 C13.35 53.83 13.27
							 53.66 13.1 53.05 C13.09 52.95 13.04 52.77 13.06 52.77 C13.08 52.73 13.11 52.71 13.15 52.71 C13.31 52.66
							 13.41 52.88 13.52 53.33 C13.58 53.56 13.64 53.75 13.5 53.8 ZM11.87 53.51 C11.83 53.73 11.83 53.77 11.58
							 53.82 L11.22 53.88 L11.51 53.33 C11.71 52.94 11.67 52.71 11.66 52.61 C11.57 52.13 11.27 52.08 11.12
							 52.1 C10.79 52.17 10.73 52.64 10.72 52.85 L10.79 52.83 C10.83 52.54 10.98 52.5 11.03 52.49 C11.26 52.44
							 11.36 52.75 11.38 52.84 C11.44 53.21 11.24 53.66 10.95 54.27 L10.98 54.35 L11.95 54.17 L11.94 53.49
							 L11.87 53.51 ZM9.28 52.37 C8.85 52.42 8.81 52.96 8.84 53.13 C8.89 53.67 9.17 53.76 9.33 53.75 C9.38
							 53.75 9.42 53.73 9.45 53.72 C9.48 53.71 9.52 53.68 9.54 53.66 C9.49 54.27 9.22 54.46 9.01 54.55 L9.01
							 54.62 C9.7 54.46 9.98 53.81 9.92 53.24 C9.84 52.5 9.49 52.34 9.28 52.37 ZM9.45 53.58 C9.29 53.61 9.22
							 53.37 9.18 52.91 C9.15 52.66 9.13 52.47 9.28 52.46 C9.42 52.44 9.48 52.63 9.54 53.25 C9.55 53.32 9.55
							 53.48 9.55 53.54 C9.54 53.56 9.49 53.58 9.45 53.58 ZM7.7 54.18 L7.65 52.37 L7.6 52.37 L7.02 52.73 L7.02
							 52.83 C7.09 52.78 7.18 52.73 7.21 52.73 C7.31 52.73 7.31 52.88 7.31 52.95 L7.35 54.17 C7.35 54.36 7.35
							 54.49 7.08 54.49 L7.08 54.57 L7.97 54.55 L7.97 54.47 C7.72 54.48 7.7 54.39 7.7 54.18 ZM5.82 53.71 L6.41
							 53.73 L6.42 53.37 L5.85 53.34 L5.82 53.71 ZM14.25 52.52 L14.38 52.88 L14.92 52.67 L14.8 52.33 L14.25
							 52.52 ZM4.07 53.47 C3.98 54.22 4.29 54.44 4.5 54.46 C4.92 54.51 5.07 53.98 5.09 53.81 C5.15 53.27 4.89
							 53.12 4.73 53.1 C4.62 53.09 4.57 53.1 4.51 53.13 C4.68 52.56 4.99 52.43 5.23 52.39 L5.24 52.3 C4.53
							 52.33 4.12 52.9 4.07 53.47 ZM4.49 53.27 C4.51 53.22 4.56 53.22 4.6 53.24 C4.75 53.25 4.77 53.49 4.72
							 53.95 C4.68 54.19 4.68 54.39 4.53 54.37 C4.38 54.36 4.37 54.16 4.44 53.54 C4.44 53.44 4.48 53.27 4.49
							 53.27 ZM2.21 52.61 L2.27 52.62 C2.37 52.37 2.49 52.39 2.55 52.4 L3.03 52.49 L2.25 54.09 L2.47 54.12
							 L3.41 52.13 L2.44 51.94 L2.21 52.61 ZM1.07 51.57 C0.65 51.45 0.42 51.96 0.38 52.13 C0.23 52.64 0.46
							 52.83 0.62 52.88 C0.66 52.89 0.69 52.89 0.73 52.89 C0.77 52.89 0.81 52.88 0.84 52.87 C0.57 53.42 0.26
							 53.5 0.01 53.5 L0 53.58 C0.72 53.67 1.19 53.17 1.35 52.61 C1.55 51.88 1.27 51.62 1.07 51.57 ZM1.01 52.49
							 C0.98 52.56 0.92 52.72 0.91 52.76 C0.89 52.78 0.84 52.78 0.79 52.78 C0.63 52.73 0.66 52.49 0.77 52.04
							 C0.84 51.81 0.89 51.61 1.04 51.64 C1.18 51.69 1.16 51.88 1.01 52.49 Z" class="st1"/>
			</g>
			<g id="shape16-29" v:mID="16" v:groupContext="shape" transform="translate(10.5932,0)">
				<title>工作表.16</title>
				<path d="M30.84 46.73 L30.35 47.03 C28.95 47.94 27.43 48.67 25.86 49.26 L25.58 48.42 L25.28 48.52 C22.86 49.34 20.33
							 49.76 17.74 49.76 C15.15 49.76 12.62 49.34 10.2 48.53 L9.91 48.43 L9.62 49.26 C8.04 48.67 6.49 47.93
							 5.06 47 L4.57 46.69 L4.57 49.37 L0 49.37 L0.77 49.93 C3.51 51.99 6.54 53.51 9.79 54.46 L10.1 54.54 L10.39
							 53.64 C12.76 54.28 15.23 54.62 17.72 54.62 C20.19 54.62 22.64 54.29 25.01 53.65 L25.3 54.56 L25.59 54.47
							 C28.85 53.53 31.9 52.02 34.64 49.96 L35.41 49.4 C35.41 49.4 31.35 49.4 30.82 49.4 C30.84 48.92 30.84
							 46.73 30.84 46.73 ZM9.69 53.75 C6.93 52.92 4.33 51.65 1.95 50 L5.21 50 L5.21 47.83 C6.55 48.65 7.96
							 49.32 9.41 49.86 L8.33 53.02 L8.63 53.13 C9.01 53.26 9.4 53.36 9.79 53.47 C9.76 53.56 9.73 53.66 9.69
							 53.75 ZM17.73 53.99 C14.8 53.99 11.9 53.52 9.14 52.62 C9.3 52.13 10.13 49.68 10.28 49.22 C12.68 50 15.18
							 50.39 17.73 50.39 C20.28 50.39 22.77 49.99 25.17 49.22 C25.32 49.68 26.16 52.13 26.32 52.61 C23.56 53.52
							 20.66 53.99 17.73 53.99 ZM33.47 50.03 C31.09 51.69 28.48 52.94 25.72 53.77 C25.69 53.67 25.65 53.57
							 25.62 53.48 C26.02 53.36 26.43 53.25 26.83 53.12 L27.13 53.02 L26.05 49.86 C27.49 49.33 28.88 48.67
							 30.2 47.87 L30.2 50.04 C30.2 50.04 32.36 50.03 33.47 50.03 Z" class="st1"/>
			</g>
		</g>
	</g>
</svg>
