<?xml version="1.0" standalone="no"?><!DOCTYPE svg PUBLIC "-//W3C//DTD SVG 1.1//EN" "http://www.w3.org/Graphics/SVG/1.1/DTD/svg11.dtd"><svg t="1733329033341" class="icon" viewBox="0 0 4551 1024" version="1.1" xmlns="http://www.w3.org/2000/svg" p-id="1467" xmlns:xlink="http://www.w3.org/1999/xlink" width="888.8671875" height="200"><path d="M1442.929778 167.708444A179.996444 179.996444 0 0 0 1315.612444 41.187556C1203.427556 11.377778 753.095111 11.377778 753.095111 11.377778S302.990222 11.377778 190.577778 41.187556C128.568889 57.571556 79.985778 106.040889 63.146667 167.708444 33.336889 279.210667 33.336889 512 33.336889 512s0 232.789333 30.037333 344.291556c16.497778 61.44 65.194667 109.909333 127.317334 126.520888 112.412444 29.809778 562.517333 29.809778 562.517333 29.809778s450.332444 0 562.517333-29.809778c61.781333-16.384 110.592-64.853333 127.431111-126.520888 29.923556-111.502222 29.923556-344.291556 29.923556-344.291556s0-232.789333-30.037333-344.291556z" fill="#FF0000" p-id="1468"></path><path d="M609.28 726.584889L983.267556 512 609.28 297.415111z" fill="#FFFFFF" p-id="1469"></path><path d="M2122.979556 922.282667c-28.444444-19.114667-48.810667-48.696889-60.643556-88.974223-11.946667-40.277333-18.204444-93.752889-18.204444-160.654222v-91.022222c0-67.584 6.826667-121.742222 20.707555-162.702222 13.653333-40.96 35.271111-70.769778 64.284445-89.429334 29.127111-18.659556 67.356444-28.216889 114.801777-28.216888 46.648889 0 84.081778 9.557333 112.184889 28.672 28.216889 19.114667 48.810667 48.924444 61.895111 89.429333 13.084444 40.504889 19.342222 94.663111 19.342223 162.019555v91.022223c0 66.901333-6.257778 120.604444-18.887112 161.109333-12.515556 40.504889-33.223111 70.314667-61.895111 88.974222-28.444444 18.659556-67.128889 28.216889-115.825777 28.216889-50.062222 0.227556-89.315556-9.329778-117.76-28.444444z m159.630222-98.304c7.850667-20.48 11.946667-53.930667 11.946666-100.124445V528.384c0-45.056-3.868444-77.824-11.946666-98.759111-7.736889-20.707556-21.731556-31.175111-41.642667-31.175111-19.342222 0-32.768 10.467556-40.846222 31.175111-7.736889 20.707556-11.832889 53.703111-11.832889 98.759111v195.470222c0 46.421333 3.640889 79.872 11.150222 100.124445 7.623111 20.48 21.390222 30.72 41.301334 30.72 20.138667 0 33.905778-10.24 41.870222-30.72z m2027.064889-149.731556v31.630222c0 40.277333 1.137778 70.314667 3.640889 90.567111 2.275556 20.024889 7.281778 34.816 14.791111 43.918223 7.623111 9.102222 19.342222 13.880889 35.157333 13.880889 21.276444 0 35.953778-8.192 43.690667-24.576 7.850667-16.384 12.174222-43.690667 12.856889-81.92l122.538666 7.054222c0.682667 5.461333 0.910222 12.970667 0.910222 22.528 0 58.026667-16.042667 101.262222-47.786666 129.934222-31.857778 28.672-77.027556 43.008-135.395556 43.008-70.200889 0-119.125333-21.845333-147.342222-65.536-28.216889-43.690667-42.097778-111.047111-42.097778-202.524444v-109.454223c0-94.208 14.563556-162.702222 43.690667-206.165333 29.127111-43.235556 79.075556-64.853333 149.845333-64.853333 48.696889 0 86.129778 8.874667 112.184889 26.624 26.168889 17.749333 44.373333 45.283556 55.182222 82.830222 10.581333 37.546667 16.042667 89.429333 16.042667 155.420444v107.406223h-237.909333v0.227555z m18.090666-263.964444c-7.168 8.874667-11.946667 23.438222-14.449777 43.463111a811.576889 811.576889 0 0 0-3.640889 91.477333v45.056h103.879111v-45.056c0-40.277333-1.365333-70.769778-4.096-91.477333-2.730667-20.707556-7.736889-35.498667-14.791111-43.918222-7.168-8.419556-18.432-12.743111-33.564445-12.743112-15.018667-0.227556-26.282667 4.323556-33.336889 13.198223zM1777.095111 662.414222L1615.416889 82.375111h141.084444l56.547556 262.826667c14.449778 64.853333 25.031111 119.921778 31.857778 165.660444h4.096c4.892444-32.768 15.36-87.608889 31.857777-164.750222l58.709334-263.964444h141.084444l-163.612444 580.266666v278.300445h-139.946667V662.414222z m1119.118222-348.842666v626.915555h-111.047111l-12.401778-76.686222h-2.958222c-30.264889 58.026667-75.548444 86.926222-135.850666 86.926222-41.870222 0-72.817778-13.653333-92.728889-40.96-19.911111-27.306667-29.809778-69.859556-29.809778-127.886222V313.571556h141.994667v460.344888c0 27.989333 2.958222 48.014222 9.102222 59.847112a32.312889 32.312889 0 0 0 30.947555 17.976888 70.542222 70.542222 0 0 0 60.643556-39.822222v-498.346666h142.108444z m728.860445 0v626.915555h-111.160889l-12.288-76.686222h-3.072c-30.151111 58.026667-75.548444 86.926222-135.736889 86.926222-41.984 0-72.817778-13.653333-92.842667-40.96-19.911111-27.306667-29.696-69.859556-29.696-127.886222V313.571556h141.994667v460.344888c0 27.989333 2.958222 48.014222 9.102222 59.847112a32.312889 32.312889 0 0 0 30.947556 17.976888 70.542222 70.542222 0 0 0 60.643555-39.822222v-498.346666h142.108445z" fill="#282828" p-id="1470"></path><path d="M3282.375111 195.925333h-141.084444v744.561778h-139.036445V195.925333h-141.084444V82.375111h420.977778v113.550222h0.227555z m812.828445 217.998223c-8.647111-39.594667-22.414222-68.266667-41.642667-86.016-19.342222-17.749333-45.511111-26.624-79.303111-26.624-26.168889 0-50.289778 7.281778-73.045334 22.072888-22.641778 14.563556-40.049778 33.905778-52.337777 57.799112h-1.137778V50.744889h-137.102222v889.969778h117.304889l14.449777-59.392h2.958223c11.036444 21.162667 27.534222 37.774222 49.493333 50.062222 21.959111 12.288 46.307556 18.432 73.045333 18.432 48.128 0 83.399111-22.072889 106.040889-65.991111 22.755556-43.918222 33.905778-112.64 33.905778-206.165334v-99.214222c0.227556-70.087111-4.096-124.928-12.515556-164.522666z m-130.275556 255.772444c0 45.738667-1.820444 81.464889-5.688889 107.406222-3.754667 25.941333-10.126222 44.373333-19.114667 55.296a43.918222 43.918222 0 0 1-35.953777 16.384 62.919111 62.919111 0 0 1-56.888889-32.768l0.113778-356.124444a88.746667 88.746667 0 0 1 24.803555-41.870222 54.613333 54.613333 0 0 1 38.001778-16.384c14.449778 0 25.6 5.688889 33.450667 16.839111 7.736889 11.150222 13.198222 30.264889 16.497777 56.661333 2.958222 26.624 4.551111 64.398222 4.551111 113.550222v81.009778h0.227556z" fill="#282828" p-id="1471"></path></svg>